<svg width="21" height="21" viewBox="0 0 21 21" fill="none" xmlns="http://www.w3.org/2000/svg">
<path d="M2.04585 4.32629C2.07189 4.7039 2.18906 5.21171 2.39736 5.84973C2.60566 6.48775 2.90509 7.19739 3.29566 7.97864C3.69924 8.75989 4.19395 9.57369 4.7798 10.42C5.36565 11.2664 6.04913 12.0802 6.83026 12.8615C7.59837 13.6427 8.38601 14.3784 9.19317 15.0685C9.98732 15.7586 10.7294 16.3641 11.4194 16.8849C12.1224 17.4057 12.7408 17.8224 13.2746 18.1349C13.8083 18.4474 14.1924 18.6232 14.4267 18.6622C14.8954 18.7143 15.2079 18.7338 15.3641 18.7208C15.5333 18.7078 15.618 18.7013 15.618 18.7013C15.683 18.7143 15.8783 18.6492 16.2038 18.506C16.5162 18.3628 16.8612 18.174 17.2388 17.9396C17.6163 17.6922 17.9744 17.4057 18.3128 17.0802C18.6513 16.7547 18.8727 16.4161 18.9768 16.0646C18.5602 15.8693 17.9418 15.5568 17.1216 15.1271C16.3145 14.6974 15.7026 14.3849 15.286 14.1896L13.0988 15.8693L10.9117 14.3263C10.6903 14.2091 10.2347 13.8445 9.54468 13.2325C8.8677 12.6206 8.24931 12.0021 7.6895 11.3771C7.11667 10.7521 6.5829 10.1075 6.08819 9.44348C5.60649 8.77942 5.30706 8.33671 5.18989 8.11536L4.76027 7.25598L6.01008 5.67395L4.36971 2.09973C3.77084 2.32109 3.22405 2.63359 2.72934 3.03723C2.24764 3.44088 2.01981 3.87056 2.04585 4.32629ZM14.8173 20.381C14.3096 20.381 13.6977 20.1987 12.9816 19.8341C12.2786 19.4565 11.517 18.9682 10.6968 18.3693C9.87666 17.7573 9.03044 17.0672 8.15818 16.2989C7.29894 15.5307 6.45272 14.7495 5.61951 13.9552C4.79933 13.174 4.07678 12.3341 3.45188 11.4357C2.82698 10.5503 2.29972 9.67786 1.8701 8.81848C1.4535 7.95911 1.12803 7.1453 0.893688 6.37708C0.672369 5.62187 0.542181 4.98385 0.503125 4.46301C0.477087 3.99426 0.613784 3.53202 0.913217 3.07629C1.19963 2.60754 1.57067 2.19088 2.02632 1.82629C2.495 1.44869 3.00273 1.12968 3.54952 0.869263C4.09631 0.608846 4.61706 0.446086 5.11178 0.380981L7.86526 5.96692L6.47875 7.56848C6.62196 7.80286 7.01252 8.31067 7.65044 9.09192C8.28837 9.87317 8.92629 10.5893 9.56421 11.2404C10.2021 11.8784 10.8661 12.4904 11.5561 13.0763C12.2591 13.6492 12.7278 14.0008 12.9621 14.131L14.9345 12.6661C14.9345 12.6661 15.1428 12.7573 15.5594 12.9396C15.976 13.1219 16.4642 13.3367 17.024 13.5841C17.5838 13.8185 18.1436 14.0659 18.7034 14.3263C19.2632 14.5867 19.6863 14.7885 19.9727 14.9318C19.9727 14.9318 20.0248 14.9773 20.129 15.0685C20.2331 15.1596 20.3242 15.3224 20.4024 15.5568C20.4675 15.7911 20.5 15.9604 20.5 16.0646C20.5 16.1557 20.5 16.2013 20.5 16.2013C20.2657 17.2039 19.7775 17.9851 19.0354 18.545C18.3063 19.1049 17.5057 19.5802 16.6334 19.9708C16.6334 19.9708 16.5488 20.0034 16.3795 20.0685C16.2103 20.1336 15.989 20.1987 15.7156 20.2638C15.4292 20.3419 15.2079 20.381 15.0516 20.381C14.8954 20.381 14.8173 20.381 14.8173 20.381Z" fill="#444444"/>
</svg>
