<svg width="16" height="16" viewBox="0 0 16 16" fill="none" xmlns="http://www.w3.org/2000/svg">
<path d="M4.875 8.94049C5.9125 8.94049 6.75 8.10299 6.75 7.06549C6.75 6.02799 5.9125 5.19049 4.875 5.19049C3.8375 5.19049 3 6.02799 3 7.06549C3 8.10299 3.8375 8.94049 4.875 8.94049ZM4.875 6.44049C5.21875 6.44049 5.5 6.72174 5.5 7.06549C5.5 7.40924 5.21875 7.69049 4.875 7.69049C4.53125 7.69049 4.25 7.40924 4.25 7.06549C4.25 6.72174 4.53125 6.44049 4.875 6.44049ZM12.375 4.56549H7.375V9.56549H2.375V3.31549H1.125V12.6905H2.375V10.8155H13.625V12.6905H14.875V7.06549C14.875 5.68424 13.7563 4.56549 12.375 4.56549ZM13.625 9.56549H8.625V5.81549H12.375C13.0625 5.81549 13.625 6.37799 13.625 7.06549V9.56549Z" fill="white"/>
</svg>
