<svg width="20" height="20" viewBox="0 0 20 20" fill="none" xmlns="http://www.w3.org/2000/svg">
<path d="M8.33333 11.6667H3.33333V13.3334H8.33333V11.6667Z" fill="white"/>
<path d="M13.3333 11.6667C13.3333 10.7462 14.0795 10 15 10C15.9205 10 16.6667 10.7462 16.6667 11.6667C16.6667 12.5872 15.9205 13.3334 15 13.3334C14.0795 13.3334 13.3333 12.5872 13.3333 11.6667Z" fill="white"/>
<path fill-rule="evenodd" clip-rule="evenodd" d="M0 15V5.00004C0 4.07957 0.746192 3.33337 1.66667 3.33337H18.3333C19.2538 3.33337 20 4.07667 20 4.99714V15.0014C20 15.9219 19.2538 16.6667 18.3333 16.6667H1.66667C0.746192 16.6667 0 15.9205 0 15ZM1.66667 6.66671V5.83337C1.66667 5.37314 2.03976 5.00004 2.5 5.00004H17.5C17.9602 5.00004 18.3333 5.36973 18.3333 5.82997V6.66671H1.66667ZM1.66667 8.33337V14.1667C1.66667 14.6269 2.03976 15 2.5 15H17.5C17.9602 15 18.3333 14.628 18.3333 14.1678V8.33337H1.66667Z" fill="white"/>
</svg>
