<svg width="30" height="31" viewBox="0 0 30 31" fill="none" xmlns="http://www.w3.org/2000/svg">
<path d="M15 3.38098C18.3962 3.38098 18.82 3.39348 20.1525 3.45598C21.4837 3.51848 22.39 3.72723 23.1875 4.03723C24.0125 4.35473 24.7075 4.78473 25.4025 5.47848C26.0381 6.10335 26.5299 6.85922 26.8438 7.69348C27.1525 8.48973 27.3625 9.39723 27.425 10.7285C27.4838 12.061 27.5 12.4847 27.5 15.881C27.5 19.2772 27.4875 19.701 27.425 21.0335C27.3625 22.3647 27.1525 23.271 26.8438 24.0685C26.5308 24.9032 26.0389 25.6593 25.4025 26.2835C24.7775 26.9189 24.0216 27.4107 23.1875 27.7247C22.3912 28.0335 21.4837 28.2435 20.1525 28.306C18.82 28.3647 18.3962 28.381 15 28.381C11.6038 28.381 11.18 28.3685 9.8475 28.306C8.51625 28.2435 7.61 28.0335 6.8125 27.7247C5.97791 27.4116 5.22191 26.9197 4.5975 26.2835C3.96176 25.6587 3.46991 24.9028 3.15625 24.0685C2.84625 23.2722 2.6375 22.3647 2.575 21.0335C2.51625 19.701 2.5 19.2772 2.5 15.881C2.5 12.4847 2.5125 12.061 2.575 10.7285C2.6375 9.39598 2.84625 8.49098 3.15625 7.69348C3.46905 6.85871 3.961 6.10263 4.5975 5.47848C5.22209 4.84252 5.97804 4.35064 6.8125 4.03723C7.61 3.72723 8.515 3.51848 9.8475 3.45598C11.18 3.39723 11.6038 3.38098 15 3.38098ZM15 9.63098C13.3424 9.63098 11.7527 10.2895 10.5806 11.4616C9.40848 12.6337 8.75 14.2234 8.75 15.881C8.75 17.5386 9.40848 19.1283 10.5806 20.3004C11.7527 21.4725 13.3424 22.131 15 22.131C16.6576 22.131 18.2473 21.4725 19.4194 20.3004C20.5915 19.1283 21.25 17.5386 21.25 15.881C21.25 14.2234 20.5915 12.6337 19.4194 11.4616C18.2473 10.2895 16.6576 9.63098 15 9.63098ZM23.125 9.31848C23.125 8.90408 22.9604 8.50665 22.6674 8.21363C22.3743 7.9206 21.9769 7.75598 21.5625 7.75598C21.1481 7.75598 20.7507 7.9206 20.4576 8.21363C20.1646 8.50665 20 8.90408 20 9.31848C20 9.73288 20.1646 10.1303 20.4576 10.4233C20.7507 10.7164 21.1481 10.881 21.5625 10.881C21.9769 10.881 22.3743 10.7164 22.6674 10.4233C22.9604 10.1303 23.125 9.73288 23.125 9.31848ZM15 12.131C15.9946 12.131 16.9484 12.5261 17.6517 13.2293C18.3549 13.9326 18.75 14.8864 18.75 15.881C18.75 16.8755 18.3549 17.8294 17.6517 18.5326C16.9484 19.2359 15.9946 19.631 15 19.631C14.0054 19.631 13.0516 19.2359 12.3483 18.5326C11.6451 17.8294 11.25 16.8755 11.25 15.881C11.25 14.8864 11.6451 13.9326 12.3483 13.2293C13.0516 12.5261 14.0054 12.131 15 12.131Z" fill="white"/>
</svg>
