<svg width="183" height="68" viewBox="0 0 183 68" fill="none" xmlns="http://www.w3.org/2000/svg">
<g clip-path="url(#clip0_409_281)">
<path d="M28.8769 2.47587C28.2985 2.5833 27.9008 2.66515 27.4976 2.72909C27.3057 2.75978 27.0832 2.70863 26.9136 2.77513C26.6105 2.89534 26.2629 3.02834 26.0821 3.25598C26.0098 3.34806 26.3296 3.70103 26.4659 3.92611C25.4647 3.75986 24.2439 3.83147 23.9436 2.48355C23.9853 2.45541 24.0743 2.39658 24.2022 2.31218C23.6599 1.97456 23.1705 1.67019 22.6838 1.36582L22.7617 1.27118C23.2762 1.45789 23.7934 1.63949 24.3023 1.83644C24.4163 1.87992 24.5721 1.95921 24.5999 2.05129C24.7862 2.62934 25.1394 2.6319 25.6399 2.37356C25.8179 2.28149 26.0654 2.25847 26.2768 2.27125C27.0777 2.31985 27.8758 2.39403 28.8769 2.47587Z" fill="white"/>
<path d="M28.6765 48.8298L27.9396 53.5564C27.6115 55.9249 25.5369 56.6436 23.7154 56.5285C21.7187 56.4007 19.6636 55.2676 19.6859 53.5974C19.6942 53.3032 19.3689 49.927 19.1964 48.1315C18.9462 47.9678 18.7348 47.7683 18.5652 47.5406C18.8043 49.9756 19.1214 53.3339 19.1158 53.5871C19.0908 55.5719 21.4156 56.9071 23.6765 57.0503C23.8044 57.058 23.9379 57.0631 24.0686 57.0631C25.9763 57.0631 28.151 56.1781 28.5041 53.6281L29.3189 48.4026C29.1354 48.5714 28.9213 48.7172 28.6765 48.8298Z" fill="white"/>
<path d="M4.67467 55.8559C4.67467 55.8559 3.40658 59.0044 6.69083 60.8665C9.97507 62.7259 16.4323 61.8819 16.4323 61.8819C16.4323 61.8819 9.77485 64.0278 4.52729 63.0175C-0.317044 62.084 -0.603477 57.2115 0.595092 56.7357C1.79366 56.26 3.33706 55.9914 4.67467 55.8559Z" fill="white"/>
<path d="M16.9858 61.6312C16.9858 61.6312 18.8324 62.4241 20.8235 65.079C22.8146 67.734 26.5605 68.4271 28.9687 67.7621C31.377 67.0971 33.827 64.6008 34.1301 62.2579C34.1301 62.2579 30.7291 65.8566 26.7607 65.1149C22.7924 64.3731 19.4747 61.3652 16.9886 61.6287L16.9858 61.6312Z" fill="white"/>
<path d="M32.9758 61.9561C32.9758 61.9561 34.814 59.4137 37.2334 59.0377C39.6528 58.6591 43.3597 57.2703 44.0271 56.0963C44.0271 56.0963 47.8926 56.7408 48.7408 57.5695C48.7408 57.5695 46.6634 59.8383 43.0733 59.8741C38.0204 59.9252 35.601 60.534 32.9758 61.9535V61.9561Z" fill="white"/>
<path d="M12.0551 58.7205C12.0913 58.7256 12.9506 58.8689 14.1825 58.8305C15.3477 58.7972 16.8021 58.7512 19.4774 59.9482C21.855 61.0097 24.0714 61.5775 25.8178 61.5775C26.0542 61.5775 26.2822 61.5673 26.4991 61.5468C28.3707 61.3678 29.7583 60.4291 30.7567 59.6336C31.6883 58.8893 33.8185 57.48 35.8875 56.9148C37.8369 56.3802 39.1967 55.7766 39.9531 55.1192C39.7446 55.0706 39.5193 55.0195 39.2774 54.9658C38.5432 55.4773 37.3391 55.971 35.7234 56.4134C33.5598 57.0068 31.349 58.4673 30.3813 59.2397C29.3857 60.0326 28.1399 60.8639 26.4379 61.0276C24.7388 61.1913 22.2916 60.626 19.7249 59.4802C16.9217 58.2269 15.3922 58.2755 14.1575 58.3087C13.0006 58.3445 12.1636 58.209 12.158 58.2064C9.46889 57.7383 8.84319 56.15 8.71248 55.2113C8.50948 55.2446 8.32594 55.2778 8.16187 55.3085C8.33428 56.4032 9.07956 58.2064 12.0551 58.7231V58.7205Z" fill="white"/>
<path d="M10.8762 55.7689C11.4964 56.4365 12.2973 56.5976 13.2178 56.5669C14.2856 56.5311 15.2645 56.5055 16.3268 56.6641C17.5448 56.8457 18.6878 57.2294 19.8196 57.6693C21.897 58.4775 24.2273 59.6669 26.5661 59.2679C27.7702 59.0633 28.6824 58.3548 29.6056 57.6642C30.5928 56.9275 31.5995 56.1935 32.7452 55.6742C33.9021 55.1499 35.1563 54.8225 36.3549 54.3954C34.2497 54.0399 31.5495 53.6843 28.243 53.4413C28.243 53.4413 27.798 55.9837 25.0672 56.4032C23.4876 56.6462 20.2201 56.6053 19.4275 53.7687C19.4275 53.7687 16.655 54.114 11.7689 54.756C11.2934 54.8174 10.8735 54.8762 10.4814 54.9325C10.4313 55.1806 10.5954 55.4594 10.8762 55.7638V55.7689Z" fill="white"/>
<path d="M37.545 57.0785C36.1323 57.6335 34.3915 57.8304 33.1873 58.741C32.214 59.4776 31.4882 60.4496 30.5622 61.2348C29.5026 62.1326 28.2735 62.6901 26.8357 62.8462C24.116 63.1377 21.7495 61.9663 19.344 60.9995C19.4858 61.0583 19.6249 61.1197 19.7528 61.1939C22.1444 62.5597 24.8168 64.6059 28.5877 63.2401C30.7123 62.4702 31.8497 61.4445 32.4337 60.6977C33.6406 59.1579 35.3425 58.0018 37.3086 57.4263C37.342 57.4161 37.3754 57.4059 37.4087 57.3982C40.782 56.4288 41.8276 55.6257 41.8276 55.6257C41.8276 55.6257 41.4466 55.5003 40.7124 55.3111C39.7697 56.0554 38.6879 56.6334 37.5422 57.0836L37.545 57.0785Z" fill="white"/>
<path d="M18.1871 60.557C16.7077 60.0326 15.2032 59.805 13.6181 59.8152C11.9913 59.828 10.5091 59.9431 9.04908 59.1272C7.65585 58.3471 6.99121 56.9838 6.92169 55.5694C6.62413 55.6512 6.58242 55.6896 6.58242 55.6896C6.58242 55.6896 5.78152 59.7206 9.14363 60.4367C12.2749 61.1043 16.6938 60.0019 19.2216 60.9457C18.8796 60.8102 18.5347 60.6772 18.1871 60.5544V60.557Z" fill="white"/>
<path d="M28.7211 6.78054C28.532 6.70636 28.3457 6.63731 28.1705 6.58104C26.2267 5.95183 24.0604 6.33038 22.2166 7.04399C21.8356 7.19233 21.4157 7.31766 21.0959 7.56576C20.8206 7.78317 20.587 8.05173 20.3339 8.2896C20.2505 8.36889 20.1143 8.54538 19.9947 8.59142C19.7472 8.68605 19.4357 8.52236 19.1771 8.44307C18.6988 8.29728 18.2066 8.19497 17.7088 8.13358C15.9234 7.9085 14.0964 8.2052 12.4668 8.9009C10.6008 9.69636 9.03514 11.0468 8.12301 12.7452C4.57457 11.9114 1.41269 14.7044 0.942718 17.8453C0.820359 18.6663 0.94828 19.4695 1.31536 20.224C1.4266 20.4542 1.5573 20.6742 1.70469 20.889C1.87154 21.132 1.90213 21.1064 1.81314 21.3827C1.688 21.7817 1.47943 22.1704 1.3237 22.5618C1.00668 23.3547 0.703561 24.1757 0.620134 25.0223C0.542268 25.8255 0.789769 26.6337 1.1207 27.3703C1.63516 28.5213 2.48612 28.974 3.56233 29.4984C2.33317 31.1941 2.11626 33.4398 3.11182 35.2814C4.0907 37.0948 6.13466 38.2612 8.30098 38.4198C9.0852 40.5606 11.4045 42.0517 13.8823 41.8446C14.1464 41.8215 14.33 41.5837 14.1909 41.3509C13.9657 40.9826 13.9101 40.581 13.7349 40.1974C13.5875 39.8828 13.3678 39.6065 13.1676 39.3201C12.5891 38.4914 12.4251 37.5527 12.2944 36.591C12.172 35.6727 12.1164 34.7468 12.1414 33.8235C12.1664 32.8388 12.1803 31.7185 12.5252 30.7823C12.5752 30.6442 12.4918 30.4856 12.3611 30.4115C10.9095 29.5879 10.5952 27.7668 11.4962 26.4879C12.1609 25.5441 13.3205 24.9865 14.4384 24.6105H14.444C14.1798 24.4954 13.949 24.342 13.7543 24.1629C13.7293 24.1732 13.7071 24.1783 13.682 24.1885C12.3611 24.7026 11.1125 25.4981 10.548 26.7565C9.90278 28.1914 10.4284 29.9127 11.7799 30.8258C11.5101 31.6955 11.474 32.6904 11.4378 33.578C11.3933 34.665 11.4629 35.7495 11.6158 36.8263C11.741 37.7087 11.8967 38.6013 12.375 39.3891C12.6142 39.783 12.959 40.1283 13.1314 40.5555C13.2204 40.778 13.2816 40.9903 13.3594 41.2026C11.3155 41.1591 9.48565 39.87 8.91556 38.031C8.87107 37.8877 8.72924 37.7957 8.57073 37.7905C6.54623 37.7189 4.63297 36.6344 3.73196 34.9515C2.79202 33.1994 3.12294 31.0765 4.38826 29.5444C4.50227 29.4063 4.41606 29.171 4.26033 29.0968C3.76533 28.8538 3.21471 28.6799 2.76143 28.3704C2.08567 27.91 1.75752 27.1734 1.53505 26.4521C1.21803 25.4341 1.36263 24.5696 1.70469 23.5695C1.85207 23.1398 2.02449 22.7178 2.1969 22.2958C2.33039 21.9735 2.65297 21.5003 2.65575 21.155C2.66132 20.7739 2.15519 20.3417 1.97721 19.9913C1.73528 19.5104 1.60457 18.9937 1.60457 18.4643C1.60457 17.4003 2.09401 16.2391 2.7225 15.3566C3.88769 13.7274 6.16803 12.85 8.21478 13.4409C8.35104 13.4793 8.55405 13.4179 8.61801 13.29C10.1225 10.2539 13.8266 8.38424 17.4279 8.75767C17.8645 8.80371 18.2955 8.88556 18.7182 9.00065C19.1243 9.11064 19.5942 9.36385 20.028 9.29991C20.523 9.22829 20.9318 8.66559 21.2516 8.35355C21.8551 7.77038 22.7311 7.51972 23.557 7.2793C24.5693 6.9826 25.6093 6.87262 26.6661 6.97237C27.4225 7.04399 28.0899 7.23837 28.7378 7.53507C28.7156 7.28697 28.7156 7.03375 28.7184 6.7831L28.7211 6.78054Z" fill="white"/>
<path d="M46.4382 23.0912C46.9833 21.9837 46.9166 20.9018 46.6496 19.738C46.1379 17.5256 44.4749 15.4666 41.8998 15.3771C42.5422 13.313 41.5522 11.0187 39.7335 9.70403C37.6895 8.22566 34.8836 8.10289 32.467 8.80627C32.467 8.93927 32.4642 9.07227 32.4726 9.20783C32.4837 9.29991 32.4948 9.38943 32.5087 9.48151C34.6778 8.8165 37.1862 8.82929 39.105 10.0851C40.9738 11.3052 41.9165 13.6302 41.06 15.6252C40.9766 15.817 41.1879 16.0523 41.4048 16.0396C43.9632 15.8835 45.4872 17.8351 45.9655 19.9145C46.2046 20.9453 46.2742 21.8737 45.782 22.8559C45.3064 23.8023 44.5306 24.6284 43.6184 25.2397C43.5628 25.2755 43.5294 25.3216 43.5044 25.3702C43.4043 25.5057 43.4071 25.6899 43.5934 25.7896C43.6268 25.8203 43.6657 25.8434 43.7102 25.8561C46.5467 27.1964 46.1184 31.6187 43.1095 32.5242C42.8648 32.5983 42.748 32.895 42.9538 33.0715C44.4193 34.3376 44.2135 36.284 43.1818 37.7343C41.8442 39.6117 39.4749 40.3278 37.1751 39.8495C38.115 38.7753 38.6656 37.4325 39.0605 36.1152C39.5611 34.4501 39.7391 32.7058 39.5194 30.987C39.2135 28.5929 38.1178 26.0812 36.1517 24.4238C36.0182 24.6105 35.8541 24.7793 35.6623 24.9226C37.239 26.2577 38.2318 28.176 38.6545 30.1225C39.0327 31.8566 38.9687 33.6726 38.5266 35.3914C38.1233 36.9567 37.5143 38.6244 36.2768 39.8035C36.0849 39.9851 36.1767 40.2767 36.4326 40.3508C39.2107 41.1642 42.1779 40.3406 43.7964 38.0693C44.9088 36.5066 45.1173 34.4246 43.8103 32.9641C45.3426 32.2965 46.238 30.9026 46.3215 29.3193C46.3965 27.8665 45.7597 26.3089 44.4249 25.4904C45.273 24.8382 45.9877 24.0325 46.4438 23.1015L46.4382 23.0912Z" fill="white"/>
<path d="M36.1294 24.4392C36.0238 24.585 35.9014 24.718 35.7596 24.8356C41.897 30.1583 37.3669 38.2177 37.1611 38.5758C37.125 38.6346 33.4848 44.5328 29.5804 47.7504L28.938 48.285C25.448 51.1905 24.1438 52.2776 18.924 47.7555C13.3316 42.9111 11.4712 33.5626 11.4545 33.468V33.4629C10.6731 29.9204 11.7382 26.8307 14.4579 24.6131C14.2743 24.5338 14.1075 24.4366 13.9573 24.3241C11.1708 26.6567 10.0835 29.8769 10.8928 33.5626C10.9372 33.7903 12.8422 43.2078 18.5319 48.1366C21.1877 50.4386 22.9507 51.344 24.4496 51.344C26.1098 51.344 27.4475 50.2314 29.319 48.6737L29.9614 48.1417C33.9353 44.8678 37.62 38.8955 37.6617 38.829C37.7145 38.7369 42.6034 30.0585 36.1322 24.4392H36.1294Z" fill="white"/>
<path d="M20.5118 44.3588C20.5118 44.3588 22.5057 42.8319 23.1259 42.9086C23.7488 42.9853 24.7026 44.0161 24.7026 44.0161C24.7026 44.0161 25.9902 42.8268 26.6548 42.906C27.3195 42.9853 29.1743 44.3588 29.1743 44.3588C29.1743 44.3588 27.9591 45.1773 27.2027 45.8756C26.4463 46.5738 23.9156 47.4895 22.0663 45.6761C22.0663 45.6761 21.5463 45.0648 20.509 44.3588H20.5118Z" fill="white"/>
<path d="M31.7412 14.3975C31.9554 14.6635 32.0916 14.9576 32.0916 15.3004C32.0916 15.5024 32.0972 15.7019 32.1028 15.904C33.3319 15.326 34.5639 14.7556 35.7847 14.1673C36.0934 14.019 36.4132 13.9294 36.733 13.8783C36.7246 13.4997 36.7191 13.1212 36.7107 12.7452C36.7635 12.7401 36.808 12.7375 36.8498 12.735C36.8498 12.6071 36.8442 12.4869 36.8414 12.3564C36.0155 12.3692 35.1923 12.382 34.3553 12.3948C34.422 12.2157 34.3025 12.1595 34.1634 12.1134C34.1217 12.1006 34.0855 12.0725 34.0466 12.0597C33.9938 12.0418 33.9799 12.0137 33.9799 11.9625C33.9715 11.3563 33.9576 10.7476 33.9493 10.1414C33.9493 10.1031 33.9632 10.0621 33.9799 10.0263C34.0105 9.95726 34.0466 9.88821 34.0828 9.81659C33.6712 9.69382 33.2707 9.57105 32.8731 9.45595C32.8035 9.43549 32.7702 9.40991 32.773 9.33573C32.7785 9.20017 32.773 9.06461 32.7674 8.91882C32.684 8.91882 32.6089 8.91882 32.5255 8.92138C32.5255 8.8779 32.5255 8.84209 32.5255 8.80884C32.5143 8.20266 32.5088 7.59391 32.4893 6.98773C32.4837 6.80102 32.4976 6.62453 32.6033 6.46084C32.6117 6.44805 32.6144 6.43014 32.6228 6.40968C32.3558 6.29458 32.0944 6.17693 31.8302 6.06439C31.7718 6.03881 31.7496 6.01068 31.7468 5.94929C31.744 5.55028 31.7412 5.15383 31.7246 4.75483C31.7162 4.57067 31.7385 4.40697 31.8664 4.26118C31.8692 4.25863 31.8664 4.25095 31.8664 4.24584L31.8469 4.25607C31.8108 4.1998 31.744 4.14608 31.7412 4.08981C31.7357 3.97216 31.7023 3.86473 31.655 3.75731C31.5855 3.59873 31.5132 3.44271 31.4576 3.28157C31.4187 3.17414 31.3742 3.09741 31.2351 3.12811C31.2296 3.12811 31.224 3.12555 31.2129 3.12043C31.2045 3.0923 31.1934 3.06416 31.1851 3.03347C31.0516 2.50402 30.9181 1.97201 30.7874 1.44256C30.7818 1.41954 30.8013 1.37606 30.8235 1.36327C30.9237 1.29932 30.9237 1.1254 30.8152 1.0768C30.7179 1.03076 30.615 0.992395 30.4982 0.946355C30.5037 0.936124 30.5176 0.905432 30.5399 0.88497C30.6233 0.798007 30.615 0.675235 30.5121 0.611292C30.4648 0.580599 30.4537 0.549906 30.4537 0.506424C30.4537 0.340172 30.4481 0.173919 30.4453 0.0102234C30.4203 0.0102234 30.3953 0.0102234 30.3703 0.0102234C30.3703 0.176476 30.3758 0.340172 30.3786 0.506424C30.3786 0.544791 30.3786 0.570368 30.3258 0.59083C30.1839 0.6471 30.1673 0.795449 30.2813 0.895201C30.3007 0.913105 30.3091 0.943798 30.3119 0.948913C30.1951 1.00007 30.0949 1.04099 29.9976 1.08959C29.9003 1.13819 29.9003 1.31723 29.9976 1.36838C30.0421 1.3914 30.0588 1.41186 30.0449 1.46302C29.9642 1.82877 29.8864 2.19709 29.8085 2.5654C29.7668 2.76235 29.7223 2.95929 29.6806 3.15624C29.6472 3.15624 29.625 3.16136 29.6055 3.15624C29.5249 3.14345 29.4887 3.17926 29.4637 3.24576C29.3886 3.46061 29.3052 3.67035 29.2301 3.8852C29.2078 3.94658 29.1912 4.01564 29.1967 4.07703C29.2023 4.16143 29.18 4.22282 29.0966 4.26374C29.0827 4.27141 29.0688 4.27909 29.0577 4.28676C29.1049 4.35326 29.1467 4.40697 29.18 4.4658C29.2023 4.50161 29.219 4.54509 29.2217 4.58602C29.2329 5.05664 29.2384 5.52726 29.2496 5.99789C29.2496 6.0516 29.2357 6.07718 29.1828 6.10275C28.9186 6.22553 28.6572 6.35341 28.3903 6.4813C28.4069 6.51455 28.4236 6.54269 28.4348 6.57082C28.4709 6.65778 28.5293 6.7473 28.5321 6.83682C28.5515 7.5223 28.5627 8.20777 28.5738 8.89325C28.5738 8.92138 28.5738 8.94952 28.571 8.98532C28.4904 8.98532 28.4153 8.98532 28.3346 8.98788C28.3374 9.13623 28.3346 9.27435 28.3458 9.41247C28.3513 9.47641 28.3235 9.5071 28.2596 9.52501C28.1622 9.55314 28.0649 9.58639 27.9676 9.61964C27.6644 9.71939 27.3641 9.8217 27.0526 9.92401C27.0944 9.99819 27.1333 10.0672 27.1694 10.1363C27.1861 10.1696 27.2 10.2054 27.2 10.2412C27.2112 10.809 27.2112 11.3743 27.2362 11.9421C27.2445 12.1006 27.1917 12.1851 27.0415 12.2311C26.9025 12.2746 26.8274 12.3487 26.8608 12.492C26.8608 12.4971 26.8552 12.5022 26.8469 12.5176C26.0571 12.5303 25.259 12.5431 24.4636 12.5534C24.4636 12.6813 24.4692 12.8015 24.4692 12.9242C24.5165 12.9268 24.561 12.9294 24.6166 12.9319C24.6416 14.3489 24.6694 15.7659 24.6944 17.1803C26.2545 17.1573 27.8007 17.1317 29.3524 17.1087C29.3524 17.0831 29.3524 17.0652 29.3524 17.0448C29.3413 16.4872 29.3385 15.9296 29.3191 15.372C29.3107 15.1111 29.3775 14.8758 29.4998 14.6456C29.7112 14.2517 30.0421 13.9959 30.526 13.9448C31.0182 13.8936 31.4409 14.0266 31.7412 14.4001V14.3975ZM29.7918 7.43534C29.7835 7.02354 30.145 6.71405 30.5621 6.7115C30.9542 6.7115 31.3269 6.99285 31.3352 7.4072C31.3436 7.82923 30.9737 8.13104 30.576 8.12592C30.1895 8.14127 29.803 7.85736 29.7946 7.43534H29.7918ZM30.1895 10.9241C30.1895 10.8192 30.1867 10.7144 30.1839 10.6095C30.1812 10.4177 30.3258 10.2488 30.5121 10.2207C30.7679 10.1823 30.9821 10.2872 31.0488 10.4867C31.0516 10.4969 31.0544 10.5097 31.0544 10.52C31.0599 10.7962 31.0655 11.0699 31.071 11.3563C30.7763 11.3615 30.4926 11.364 30.1978 11.3691C30.1951 11.2182 30.1923 11.0699 30.1895 10.9241Z" fill="white"/>
<path d="M30.754 7.42509C30.754 7.52229 30.6734 7.60158 30.5677 7.60414C30.4593 7.60414 30.373 7.52485 30.373 7.42254C30.373 7.3279 30.4593 7.24349 30.5594 7.24094C30.665 7.24094 30.7512 7.32278 30.7512 7.42509H30.754Z" fill="white"/>
<path d="M17.8115 13.3795C18.9017 13.1749 19.9862 12.9268 21.0624 12.6838C21.1264 12.6684 21.1903 12.6531 21.2543 12.6378C21.0235 12.2132 20.8288 11.7732 20.6787 11.318C19.6275 11.5533 18.5568 11.7323 17.4834 11.8858C17.6141 12.3794 17.7253 12.8756 17.8088 13.3795H17.8115Z" fill="white"/>
<path d="M23.799 13.556C23.7935 13.5406 23.7851 13.5278 23.7795 13.5125C23.7795 13.5074 23.7768 13.5074 23.774 13.4971C23.7629 13.4741 23.7517 13.4485 23.7406 13.4255C23.7156 13.3693 23.6878 13.3155 23.66 13.2593C23.5599 13.0521 23.4514 12.8475 23.3402 12.6454C22.8062 12.8014 22.264 12.9396 21.7217 13.0674C22.2222 13.249 22.6449 13.5943 22.8869 14.0547C23.2261 13.9627 23.5599 13.8629 23.888 13.7504C23.8602 13.6839 23.8324 13.6174 23.8018 13.5509L23.799 13.556Z" fill="white"/>
<path d="M24.4079 13.5611C24.889 13.3693 25.359 13.1493 25.8123 12.8884L25.5314 11.8755C24.9947 12.1057 24.4413 12.3027 23.8823 12.4817C24.0742 12.8347 24.2494 13.1953 24.4079 13.5611Z" fill="white"/>
<path d="M15.2504 13.7452C15.9206 13.6839 16.5908 13.5892 17.2554 13.4767C17.1692 12.9677 17.058 12.4638 16.9217 11.9651C16.2237 12.0597 15.5285 12.1492 14.8333 12.2387L15.2504 13.7452Z" fill="white"/>
<path d="M21.8189 12.5047C23.0424 12.208 24.2494 11.8551 25.3895 11.3589L24.9752 9.86005C23.7849 10.4483 22.5308 10.8704 21.2349 11.1901C21.385 11.6479 21.5769 12.0827 21.8189 12.5047Z" fill="white"/>
<path d="M25.9596 13.4179C25.0475 13.9269 24.0714 14.2824 23.0647 14.551L23.5013 16.124C24.5108 15.8887 25.5008 15.5971 26.4685 15.2467L25.9624 13.4179H25.9596Z" fill="white"/>
<path d="M19.7945 18.8965L19.3523 17.3031C19.1076 17.3261 18.8657 17.3542 18.621 17.3721C18.1343 17.4054 17.6226 17.4514 17.1137 17.477C17.0414 17.5179 16.9469 17.5154 16.8634 17.4821C16.6688 17.4872 16.4741 17.4949 16.2822 17.4898L16.7772 19.2751C17.7839 19.1523 18.7878 19.0244 19.7917 18.8965H19.7945Z" fill="white"/>
<path d="M24.8279 9.33316L24.8223 9.31781L26.0932 8.108L25.9764 7.69109C24.5108 7.72946 23.9574 6.19482 23.9574 6.19482C22.3696 3.24574 20.1977 2.68304 18.8489 2.65235C18.8434 2.60119 18.8378 2.55004 18.8239 2.49633C18.6849 1.98989 18.1231 1.68552 17.5753 1.81341C17.0247 1.9413 16.6937 2.45796 16.8328 2.96184C16.8439 3.00276 16.8634 3.03857 16.8773 3.07693C13.9184 4.46834 13.8238 7.3151 13.8572 8.7193C13.8934 10.2335 12.781 10.4944 12.781 10.4944L12.9117 10.9676L14.38 11.7707C17.9396 11.3001 21.6437 10.942 24.8251 9.33316H24.8279Z" fill="white"/>
<path d="M26.16 17.8683C26.4882 17.7353 26.8108 17.6586 27.125 17.6305L26.6078 15.7556C26.2657 15.8784 25.9209 15.9961 25.5733 16.1035C25.7345 16.4309 25.9014 16.7557 26.0905 17.0703C26.1684 17.1982 26.1211 17.3491 25.9876 17.4284C25.8597 17.5026 25.6706 17.454 25.5983 17.3338C25.3925 16.9859 25.2034 16.6304 25.0282 16.2672C24.5694 16.4002 24.1077 16.5255 23.6433 16.6355L24.1327 18.4055C24.8391 18.2904 25.5232 18.1292 26.1628 17.8683H26.16Z" fill="white"/>
<path d="M16.5464 16.9782C16.4991 16.858 16.4547 16.7378 16.4185 16.6176C16.3323 16.3337 16.2795 16.0395 16.2155 15.7505C16.0848 15.7761 15.9541 15.8017 15.8262 15.8273L16.1404 16.9603C16.2767 16.968 16.4102 16.9782 16.5464 16.9782Z" fill="white"/>
<path d="M19.2995 13.6122C18.0092 13.8885 16.7077 14.1289 15.3923 14.2594L15.6843 15.3183C16.6966 15.1111 17.7366 14.9653 18.7767 14.8169C18.8017 14.3693 18.9853 13.9447 19.2995 13.6122Z" fill="white"/>
<path d="M19.2133 16.7941L18.8323 15.4129C18.8239 15.3873 18.8267 15.3618 18.8184 15.3336C18.1343 15.4308 17.4502 15.5306 16.7744 15.6457C16.8328 15.9168 16.8829 16.1879 16.9607 16.4539C16.9969 16.5767 17.0414 16.6969 17.0887 16.8171C17.1026 16.8478 17.1137 16.881 17.1276 16.9117C17.1276 16.9169 17.1415 16.945 17.1498 16.9629C17.7283 16.9322 18.3123 16.8734 18.8545 16.8325C18.9741 16.8222 19.0937 16.8069 19.2133 16.7966V16.7941Z" fill="white"/>
<path d="M39.8113 28.2118C39.8725 23.6463 37.5393 21.5566 35.2645 20.5693C34.6333 21.1064 33.0648 22.1602 31.1544 22.8559C31.2183 22.902 29.7834 23.0682 29.8585 23.1219C29.8585 23.1219 29.7639 23.0708 29.5915 22.9966C28.7683 23.2959 27.9369 23.59 27.1026 23.8944C24.4023 24.8791 21.3739 25.0044 18.5902 24.2038C17.5446 23.9046 16.9495 23.2396 16.7187 22.4851C16.0235 22.2242 15.3338 21.9454 14.6525 21.8891C13.6458 21.8073 12.8922 21.4824 12.4417 20.866C12.3833 20.8711 12.3499 20.8762 12.2971 20.8865C12.2554 20.8941 12.2136 20.7663 12.1636 20.7765C10.9873 21.0092 7.16352 22.2421 7.3999 27.5238C7.52226 30.2376 8.47333 31.6392 9.40771 32.363C8.79591 35.1382 9.27423 38.4581 13.5095 40.7984C13.643 41.0235 13.7264 41.1489 13.7264 41.1489C12.7198 34.5218 15.0696 30.854 18.3594 29.373C19.3272 28.9382 20.0725 28.1607 20.6453 27.2808C25.4368 25.5646 28.6404 26.117 31.007 26.2833C31.3462 26.3063 31.68 26.2782 32.0081 26.2142C33.3179 27.1759 35.1255 29.2861 35.8847 33.8133C35.8847 33.8133 35.9041 33.9309 35.9375 34.1125C35.8485 34.7008 35.7428 35.1714 35.6177 35.4605C34.8112 37.2943 36.1544 40.7959 36.1544 40.7959C36.2879 40.7243 40.4954 36.3531 40.4954 31.4627C40.4954 30.1966 40.2173 29.1173 39.8085 28.2067L39.8113 28.2118ZM8.32316 26.9125C8.32316 26.9125 7.9088 22.15 12.1024 21.7075C12.1024 21.7075 9.69136 22.7613 8.32316 26.9125ZM10.267 29.8641C10.2475 29.9076 10.2281 29.9536 10.2058 29.9971C10.0696 29.1556 10.0918 28.396 10.2281 27.708C10.1196 28.5546 10.1474 29.2682 10.267 29.8641ZM10.1002 33.1431C10.4672 36.0027 11.8632 39.118 11.8632 39.118C10.1752 36.8007 10.1002 33.1431 10.1002 33.1431ZM13.9573 24.4264C13.9573 24.4264 11.9244 26.0659 12.0273 28.3755C12.0273 28.3755 11.3738 25.7462 13.9573 24.4264ZM16.5129 28.1658C13.6291 28.5392 13.034 30.1711 12.9534 30.4396C13.0423 30.1352 13.707 28.0916 15.8928 27.3678C18.2565 26.5851 19.6943 26.1017 20.6926 25.2883C20.6926 25.2883 19.6581 27.7565 16.5129 28.1658ZM38.6239 24.9072C38.6239 24.9072 37.5755 23.4493 36.388 22.6615C36.388 22.6615 37.8619 23.3189 38.6239 24.9072ZM34.8641 25.4853C38.6823 27.2399 37.1611 32.6137 37.1611 32.6137C37.6311 28.0532 34.8641 25.4853 34.8641 25.4853ZM39.8197 30.7363C39.8197 30.7363 40.5538 35.2149 36.3602 40.4352C36.3602 40.4352 39.739 34.7596 39.8197 30.7363Z" fill="white"/>
<path d="M13.5125 40.7984C13.5125 40.7984 13.4735 40.7371 13.4124 40.6271C13.4485 40.691 13.4819 40.7473 13.5125 40.7984Z" fill="white"/>
<path d="M20.512 44.3588C20.512 44.3588 22.289 44.3972 23.3457 44.653C24.4024 44.9087 25.0977 45.0187 26.0154 44.653C26.9331 44.2872 29.1745 44.3588 29.1745 44.3588L27.3864 45.7119C27.3864 45.7119 25.9931 47.0342 23.9909 46.6787C23.9909 46.6787 22.7617 46.5022 21.9858 45.5712C21.9858 45.5712 21.0014 44.612 20.512 44.3588Z" fill="white"/>
<path d="M21.3267 34.3657C21.7077 34.4783 22.2889 34.2737 21.4129 33.4347C20.5369 32.5958 18.5764 32.3579 17.528 32.8055C16.4796 33.2557 15.5369 34.1765 15.5369 34.1765C15.5369 34.1765 16.1069 33.8184 17.8061 33.2608C19.5052 32.7032 21.3267 34.3657 21.3267 34.3657Z" fill="white"/>
<path d="M28.0954 34.6624C28.0954 34.6624 29.9169 32.9999 31.616 33.5575C33.3151 34.1151 33.8852 34.4732 33.8852 34.4732C33.8852 34.4732 32.9453 33.5524 31.8941 33.1022C30.8457 32.6521 28.8824 32.8925 28.0092 33.7314C27.136 34.5704 27.7144 34.775 28.0954 34.6624Z" fill="white"/>
<path d="M17.8283 37.302C17.3806 37.2074 16.9496 37.0284 16.424 36.88C16.5908 37.192 16.8244 37.476 17.1109 37.7113C17.0886 37.7752 17.0664 37.8366 17.0386 37.898C16.9746 38.0387 16.8967 38.1717 16.7994 38.2944C16.6047 38.54 16.3127 38.7292 15.9568 38.7855C16.3127 38.8085 16.6909 38.6858 16.9829 38.4581C17.1275 38.3456 17.2582 38.2151 17.3723 38.0719C17.4029 38.0335 17.4279 37.9926 17.4557 37.9543C17.4668 37.9619 17.4779 37.9696 17.4891 37.9773C17.6476 38.0745 17.82 38.1512 17.998 38.2177C17.9841 38.2535 17.9729 38.2893 17.9563 38.3226C17.8923 38.4632 17.8144 38.5962 17.7171 38.7216C17.5224 38.9671 17.2304 39.1564 16.8745 39.2127C17.2304 39.2357 17.6086 39.1129 17.9006 38.8853C18.0452 38.7727 18.1759 38.6423 18.29 38.4991C18.3317 38.4453 18.3678 38.3916 18.404 38.3379C18.5986 38.3814 18.7989 38.4121 19.0019 38.4223C18.9824 38.4735 18.9657 38.5246 18.9435 38.5732C18.8795 38.7139 18.8016 38.8469 18.7043 38.9722C18.5097 39.2178 18.2177 39.407 17.8617 39.4633C18.2177 39.4863 18.5959 39.3636 18.8879 39.1359C19.0325 39.0234 19.1632 38.8929 19.2772 38.7497C19.3606 38.6448 19.4301 38.5374 19.4969 38.4198C19.9168 38.384 20.3256 38.2714 20.6927 38.1C21.1738 37.8647 21.602 37.5399 21.8662 37.1025C20.8373 37.3481 19.9724 37.5271 19.1103 37.4887C18.6849 37.4708 18.2566 37.4248 17.8228 37.3046L17.8283 37.302Z" fill="white"/>
<path d="M32.1165 37.9568C32.1443 37.9952 32.1693 38.0361 32.1999 38.0744C32.314 38.2151 32.4419 38.3481 32.5893 38.4607C32.8813 38.6883 33.2595 38.8111 33.6154 38.788C33.2595 38.7318 32.9675 38.5425 32.7728 38.297C32.6755 38.1742 32.5976 38.0386 32.5336 37.9005C32.5058 37.8417 32.4836 37.7777 32.4613 37.7138C32.7478 37.4785 32.9814 37.1946 33.1482 36.8825C32.6254 37.0309 32.1944 37.2099 31.7439 37.3046C31.31 37.4273 30.8818 37.4708 30.4563 37.4887C29.597 37.5271 28.7294 37.3455 27.7004 37.1025C27.9646 37.5424 28.3957 37.8647 28.874 38.1C29.2383 38.2739 29.6471 38.3839 30.0698 38.4197C30.1365 38.5374 30.206 38.6448 30.2895 38.7497C30.4035 38.8904 30.5314 39.0234 30.6788 39.1359C30.9708 39.3635 31.349 39.4863 31.7049 39.4633C31.349 39.4045 31.057 39.2177 30.8623 38.9722C30.765 38.8494 30.6871 38.7139 30.6232 38.5732C30.6009 38.5246 30.5842 38.4734 30.5648 38.4223C30.765 38.4121 30.9652 38.3814 31.1599 38.3379C31.196 38.3916 31.235 38.4453 31.2739 38.499C31.3879 38.6397 31.5158 38.7727 31.6632 38.8852C31.9552 39.1129 32.3334 39.2357 32.6894 39.2126C32.3334 39.1538 32.0414 38.9671 31.8468 38.7215C31.7494 38.5988 31.6716 38.4632 31.6076 38.3225C31.5937 38.2893 31.5798 38.2509 31.5659 38.2177C31.7439 38.1512 31.9191 38.0744 32.0748 37.9772C32.0859 37.9696 32.097 37.9619 32.1082 37.9542L32.1165 37.9568Z" fill="white"/>
<path d="M20.3784 20.2496C23.849 19.5539 25.2339 18.9989 26.7216 19.0065C28.2094 19.0142 33.724 16.8631 35.0616 15.6124C36.3992 14.3617 39.5805 14.7172 39.5805 14.7172C39.5805 14.7172 39.5805 14.7223 39.5805 14.7249C39.5944 14.7249 39.6083 14.73 39.6222 14.7326C39.9504 13.5944 40.0283 12.4101 39.7891 11.2003C39.7891 11.2003 25.6399 21.82 8.39551 17.2877C8.39551 17.2877 9.04346 18.1292 10.2253 19.2444C14.9779 21.1371 20.3784 20.2496 20.3784 20.2496Z" fill="white"/>
<path d="M37.2418 18.7124C37.303 18.6561 37.3642 18.5999 37.4281 18.5461C38.1623 17.7123 38.763 16.8222 39.1857 15.8887C39.1718 15.8887 39.1579 15.8835 39.1467 15.881L39.1412 15.8938C39.1412 15.8938 36.4214 16.037 35.4759 16.7787C34.5277 17.5205 29.8585 20.3212 27.2945 20.0373C27.2945 20.0373 25.7456 20.1115 25.0003 20.3596C24.255 20.6077 21.3351 21.5822 18.835 21.6461C16.3378 21.7101 13.3427 21.3878 11.7771 20.5872C13.4345 21.8993 15.6426 23.2805 18.2788 24.0785C18.6404 24.1118 23.4235 24.521 26.3323 22.9864C29.3552 21.3903 33.3819 20.7305 33.3819 20.7305C33.3819 20.7305 35.932 19.9862 37.036 18.94C37.1055 18.8633 37.1695 18.7866 37.2446 18.715L37.2418 18.7124Z" fill="white"/>
<path d="M34.4775 21.0937C34.3746 21.1192 33.7072 21.288 33.329 21.3904C32.9202 21.5003 29.1048 22.5132 27.9647 22.9506C26.8273 23.3879 24.7249 24.5185 21.4268 24.695C22.0107 24.7461 22.6086 24.7691 23.2232 24.7512C27.2889 24.6259 31.3768 23.2396 34.4942 21.109C34.4859 21.1064 34.4803 21.1013 34.4747 21.0962L34.4775 21.0937Z" fill="white"/>
<path d="M66.5219 36.2355C65.2038 37.852 63.3072 38.6628 60.8294 38.6704C58.2181 38.7165 56.2187 38.0259 54.831 36.6012C53.4433 35.1766 52.762 33.092 52.787 30.3476C52.787 27.6875 53.5713 25.6362 55.1425 24.1962C56.7137 22.7562 58.6075 22.0349 60.8294 22.0349C62.9262 22.0349 64.4974 22.5234 65.5403 23.4979C65.7544 23.6514 66.0074 23.6079 66.2994 23.3726L66.2633 25.6695V28.0482C65.9824 26.7079 65.5291 25.7129 64.909 25.0633C63.8717 23.6079 62.5341 22.879 60.8934 22.879C59.2526 22.879 57.8399 23.6156 56.6803 25.0914C55.5207 26.5672 54.9395 28.3397 54.9395 30.4141C54.9395 32.4884 55.5207 34.2814 56.6803 35.7546C57.8399 37.2253 59.2443 37.9619 60.8934 37.9619C62.5424 37.9619 63.9357 37.2253 65.0953 35.7546C65.4513 35.2968 65.5764 34.6727 65.468 33.8798L67.2449 36.0053C67.0781 35.8365 66.8389 35.9132 66.5247 36.2329L66.5219 36.2355Z" fill="white"/>
<path d="M75.1595 24.8254L76.016 27.2041L77.7179 31.9717L79.4588 36.9235C80.2708 39.026 81.3581 40.4711 82.7152 41.2563C80.2791 41.53 78.7747 40.842 78.2018 39.1871L75.8269 33.1841H70.4208C68.9942 36.2866 68.3018 38.0438 68.3435 38.4556H65.4458C66.383 38.3865 68.0181 35.3914 70.3569 29.4677L71.9114 25.2935C72.4843 23.3342 72.4008 22.2498 71.6639 22.0349H74.6979C74.4837 22.4314 74.6367 23.3624 75.1567 24.8254H75.1595ZM73.2212 25.0658L70.9214 31.5932H75.2958L73.2212 25.0658Z" fill="white"/>
<path d="M84.4588 31.1251L83.8748 31.1353L83.8887 34.3939V37.435C83.8887 37.9466 83.9999 38.2842 84.2252 38.453H80.7435C81.4804 37.4938 81.8503 34.7878 81.8503 30.3347V26.5621C81.8503 24.0785 81.3581 22.5643 80.3708 22.0221H87.1841C88.4522 22.0528 89.5284 22.4697 90.4155 23.2728C91.3026 24.076 91.7447 25.319 91.7447 26.9943C91.7447 27.91 91.3665 28.7489 90.6073 29.5163C89.8482 30.281 88.4216 30.7977 86.3248 31.0663L95.3877 38.9543C96.3332 39.7319 96.945 40.223 97.2287 40.4301C97.5095 40.6348 97.9461 40.8266 98.5329 41.0005C97.1981 41.5862 95.8883 41.3407 94.6035 40.2562L84.4588 31.12V31.1251ZM86.5417 29.7234C87.3175 29.5981 87.9794 29.2963 88.53 28.8206C89.0806 28.3448 89.406 27.6517 89.5061 26.7462C89.6062 25.8382 89.3476 24.9891 88.7358 24.1962C88.1212 23.4033 86.8503 22.9889 84.9204 22.9506L84.0389 22.9736V29.9127C84.9343 29.9127 85.7686 29.8488 86.5444 29.7234H86.5417Z" fill="white"/>
<path d="M104.509 23.1347L104.534 27.7642V33.3452C104.592 36.0206 104.79 37.7241 105.132 38.4556H101.08C101.909 37.9364 102.287 35.4912 102.212 31.1149L102.187 23.1347H98.4938C97.2508 23.1347 96.4137 23.5312 95.9827 24.3241V22.0247H107.643C110.61 22.0937 112.902 22.0503 114.517 21.8994C114.153 22.7843 112.774 23.1987 110.377 23.145L104.509 23.1322V23.1347Z" fill="white"/>
<path d="M121.676 24.8254L122.535 27.2041L124.237 31.9717L125.978 36.9235C126.79 39.026 127.874 40.4711 129.234 41.2563C126.798 41.53 125.293 40.842 124.721 39.1871L122.346 33.1841H116.937C115.51 36.2866 114.821 38.0438 114.862 38.4556H111.965C112.902 38.3865 114.537 35.3914 116.876 29.4677L118.43 25.2935C119.003 23.3342 118.92 22.2498 118.183 22.0349H121.217C121 22.4314 121.155 23.3624 121.676 24.8254ZM119.737 25.0658L117.437 31.5932H121.812L119.737 25.0658Z" fill="white"/>
<path d="M142.357 33.6291C142.204 34.2302 141.792 35.0589 141.119 36.1101C139.71 37.6345 137.866 38.4146 135.588 38.453C132.671 38.499 130.488 37.7113 129.036 36.0922C127.585 34.4732 126.862 32.5318 126.862 30.2657C126.862 27.9995 127.646 26.0429 129.212 24.388C129.278 24.3113 129.348 24.2397 129.423 24.1706C130.972 22.6769 133.077 21.9761 135.738 22.0681C138.058 22.0681 139.749 22.5567 140.811 23.5312C141.3 23.989 141.606 23.9225 141.731 23.3368V29.2605C141.531 27.8128 140.953 26.5442 139.99 25.4546C138.772 24.0913 137.301 23.4084 135.577 23.4084C133.853 23.4084 132.396 24.0913 131.183 25.4546C129.968 26.8179 129.362 28.465 129.362 30.3936C129.362 32.3221 129.89 33.9616 130.947 35.3095C132.004 36.66 133.55 37.3481 135.591 37.3788V37.366C137.026 37.3583 138.247 36.6754 139.259 35.3198C139.832 34.5576 140.074 33.8414 139.993 33.1713C139.91 32.5012 139.256 32.1124 138.035 32.0049C136.812 31.8975 135.544 31.8822 134.226 31.9589L134.287 31.6392H143.175V32.1661C142.785 32.5395 142.513 33.028 142.36 33.6291H142.357Z" fill="white"/>
<path d="M145.544 30.2913L145.53 31.8694V37.3123H149.757C152.883 37.3123 154.535 36.7291 154.718 35.5628L154.32 38.4556H142.671C143.316 37.4964 143.642 34.7673 143.642 30.2683V26.5186C143.642 24.0274 143.194 22.5285 142.299 22.0247H152.243C153.114 22.0247 153.639 21.9454 153.823 21.7842V25.0198C153.458 23.7153 152.518 23.0989 151 23.168H145.53V29.0226H150.602C152.135 28.9689 153.011 28.6825 153.225 28.1658V31.0458C152.91 30.5112 152.254 30.258 151.261 30.2785L145.544 30.2913ZM155.463 35.5628C155.472 35.5474 155.477 35.5295 155.477 35.5065L155.463 35.5628Z" fill="white"/>
<path d="M166.529 22.0247C166.265 22.4288 166.151 23.9455 166.192 26.5749V38.499C166.192 38.765 166.117 38.8085 165.97 38.6244L156.857 26.5288V35.8467C156.857 37.3327 157.001 38.2023 157.291 38.453H154.629C155.152 37.4785 155.413 34.7443 155.413 30.2555V26.5288C155.413 24.0453 155.03 22.5413 154.257 22.0247H157.452C157.218 22.26 157.68 23.1961 158.831 24.8254L160.808 27.6031L164.749 33.138V25.7871C164.732 23.5926 164.268 22.3367 163.356 22.0247H166.526H166.529Z" fill="white"/>
<path d="M175.441 24.8254L176.301 27.2041L178.003 31.9717L179.743 36.9235C180.555 39.026 181.64 40.4711 183 41.2563C180.564 41.53 179.059 40.842 178.486 39.1871L176.112 33.1841H170.703C169.276 36.2866 168.586 38.0438 168.628 38.4556H165.73C166.668 38.3865 168.303 35.3914 170.642 29.4677L172.196 25.2935C172.769 23.3342 172.686 22.2498 171.949 22.0349H174.983C174.766 22.4314 174.921 23.3624 175.441 24.8254ZM173.503 25.0658L171.203 31.5932H175.578L173.503 25.0658Z" fill="white"/>
<path d="M79.7897 55.6615C80.243 55.6359 80.4682 55.4262 80.4682 55.0374H80.6407C80.649 55.5566 80.6045 55.8584 80.51 55.9505C80.4154 56.04 80.2764 56.1065 80.09 56.1423H76.5138C76.7224 55.8354 76.8447 55.2369 76.8781 54.3442V49.0293C76.8281 47.9729 76.6445 47.3437 76.3247 47.1391H78.1935C78.0377 47.2235 77.9543 47.9167 77.946 49.2211V55.4492C78.0822 55.5745 78.3103 55.6461 78.6301 55.6666C78.9499 55.6871 79.3364 55.6845 79.7897 55.6589V55.6615Z" fill="white"/>
<path d="M88.5969 51.5998L88.5913 52.3825V55.0834H90.6881C92.2371 55.0834 93.0574 54.7944 93.1492 54.2164L92.9518 55.6512H87.173C87.4928 55.1755 87.6541 53.8199 87.6541 51.5896V49.7301C87.6541 48.4947 87.4317 47.7504 86.9895 47.4997H91.9228C92.3539 47.4997 92.6153 47.4588 92.707 47.3795V48.9858C92.5263 48.3387 92.0591 48.0317 91.3055 48.0675H88.5913V50.9731H91.108C91.87 50.9476 92.3038 50.8043 92.4095 50.5486V51.9783C92.2537 51.7149 91.9284 51.587 91.4362 51.5972L88.5996 51.6023L88.5969 51.5998ZM93.5191 54.2138C93.5191 54.2138 93.5246 54.1959 93.5246 54.1857L93.5191 54.2138Z" fill="white"/>
<path d="M106.776 53.2547C106.701 53.5539 106.495 53.9632 106.161 54.4849C105.463 55.242 104.548 55.6282 103.416 55.6487C101.967 55.6717 100.886 55.2804 100.165 54.4773C99.4452 53.6741 99.0864 52.7099 99.0864 51.587C99.0864 50.4642 99.4758 49.4922 100.252 48.6712C100.285 48.6328 100.318 48.597 100.357 48.5638C101.128 47.822 102.17 47.4742 103.491 47.5202C104.643 47.5202 105.483 47.7632 106.008 48.2466C106.25 48.4742 106.403 48.441 106.464 48.1494V51.0883C106.364 50.3695 106.078 49.7403 105.599 49.1981C104.996 48.5203 104.264 48.1827 103.411 48.1827C102.557 48.1827 101.834 48.5203 101.23 49.1981C100.627 49.8759 100.327 50.6918 100.327 51.6484C100.327 52.605 100.588 53.4184 101.114 54.0885C101.639 54.7586 102.407 55.0988 103.416 55.1141V55.109C104.128 55.1065 104.734 54.7663 105.235 54.0936C105.519 53.7151 105.641 53.3595 105.599 53.027C105.558 52.6945 105.235 52.5027 104.629 52.449C104.023 52.3953 103.391 52.3901 102.738 52.426L102.768 52.2674H107.179V52.5283C106.984 52.715 106.851 52.9554 106.776 53.2547Z" fill="white"/>
<path d="M114.676 51.5998L114.671 52.3825V55.0834H116.767C118.319 55.0834 119.137 54.7944 119.229 54.2164L119.031 55.6512H113.252C113.572 55.1755 113.733 53.8199 113.733 51.5896V49.7301C113.733 48.4947 113.511 47.7504 113.069 47.4997H118.002C118.433 47.4997 118.695 47.4588 118.786 47.3795V48.9858C118.606 48.3387 118.138 48.0317 117.388 48.0675H114.673V50.9731H117.19C117.949 50.9476 118.383 50.8043 118.492 50.5486V51.9783C118.336 51.7149 118.011 51.587 117.518 51.5972L114.682 51.6023L114.676 51.5998ZM119.598 54.2138C119.598 54.2138 119.604 54.1959 119.604 54.1857L119.598 54.2138Z" fill="white"/>
<path d="M131.403 47.4972C131.273 47.6967 131.217 48.4512 131.236 49.7557V55.6717C131.236 55.8047 131.2 55.8252 131.125 55.7331L126.603 49.7301V54.3545C126.603 55.0911 126.676 55.5234 126.82 55.6487H125.499C125.758 55.1653 125.889 53.8097 125.889 51.5819V49.7326C125.889 48.4998 125.697 47.7555 125.316 47.4972H126.901C126.787 47.6148 127.015 48.0778 127.585 48.886L128.567 50.2647L130.522 53.0091V49.3618C130.513 48.2722 130.283 47.6507 129.832 47.4946H131.406L131.403 47.4972Z" fill="white"/>
<path d="M139.345 55.6538V55.6487H138.155C138.475 55.1755 138.636 53.8276 138.636 51.6049V49.7557C138.636 48.5228 138.414 47.7709 137.972 47.4972H139.512C140.811 47.4793 141.715 47.5509 142.224 47.7197C142.733 47.886 143.125 48.1008 143.397 48.3668C144.251 49.0242 144.704 50.0779 144.754 51.5256C144.704 53.0833 144.387 54.1601 143.798 54.7535C143.211 55.3469 142.535 55.6487 141.776 55.6564H139.345V55.6538ZM142.315 54.9044C142.746 54.6512 143.08 54.2317 143.325 53.646C143.567 53.0603 143.689 52.3927 143.689 51.6407C143.689 50.8887 143.467 50.1368 143.025 49.3822C142.58 48.6277 142.018 48.2108 141.334 48.1315C140.65 48.0522 140.113 48.0471 139.724 48.1213L139.729 55.196C141.025 55.2574 141.887 55.1602 142.315 54.907V54.9044Z" fill="white"/>
<path d="M156.284 51.0652C156.139 49.8324 155.831 49.0088 155.355 48.597C154.88 48.1852 154.415 47.9397 153.959 47.8629C153.503 47.7862 153.139 47.8553 152.863 48.0701C152.591 48.285 152.449 48.6149 152.438 49.0574C152.427 49.4999 152.563 49.8375 152.85 50.0728C153.133 50.3081 153.678 50.6688 154.482 51.1599C155.286 51.6509 155.85 52.073 156.175 52.4311C156.501 52.7891 156.67 53.1856 156.687 53.6204C156.687 54.2675 156.445 54.797 155.964 55.2088C155.483 55.6206 154.871 55.8277 154.126 55.8277C153.645 55.8277 153.161 55.7433 152.672 55.5745C152.182 55.4057 151.734 55.1474 151.328 54.7944V52.2597C151.623 53.3928 151.999 54.2087 152.455 54.7049C152.908 55.2011 153.403 55.4594 153.937 55.4799C154.471 55.5003 154.891 55.3929 155.197 55.155C155.5 54.9172 155.692 54.5898 155.767 54.1729C155.842 53.756 155.753 53.3646 155.494 52.9989C155.238 52.6331 154.663 52.2622 153.773 51.8888C152.883 51.5179 152.296 51.1599 152.012 50.8197C151.729 50.4744 151.587 50.0498 151.587 49.5434C151.587 48.9423 151.79 48.4512 152.202 48.0701C152.61 47.689 153.133 47.4997 153.77 47.4997C154.893 47.487 155.864 47.8578 156.687 48.6047L156.287 51.0678L156.284 51.0652Z" fill="white"/>
</g>
<defs>
<clipPath id="clip0_409_281">
<rect width="183" height="68" fill="white"/>
</clipPath>
</defs>
</svg>
