<svg width="182" height="68" viewBox="0 0 182 68" fill="none" xmlns="http://www.w3.org/2000/svg">
<g clip-path="url(#clip0_409_835)">
<path d="M66.1363 36.2459C64.8251 37.858 62.9386 38.6666 60.4739 38.6742C57.8765 38.7201 55.8876 38.0314 54.5073 36.6107C53.127 35.1899 52.4493 33.1111 52.4742 30.3741C52.4742 27.7214 53.2542 25.6757 54.8171 24.2396C56.38 22.8036 58.2638 22.0843 60.4739 22.0843C62.5596 22.0843 64.1225 22.5714 65.1598 23.5433C65.3728 23.6963 65.6245 23.653 65.915 23.4183L65.879 25.7089V28.081C65.5996 26.7444 65.1488 25.7522 64.5319 25.1043C63.5001 23.653 62.1696 22.926 60.5376 22.926C58.9055 22.926 57.5003 23.6606 56.3468 25.1324C55.1933 26.6042 54.6152 28.3718 54.6152 30.4405C54.6152 32.5091 55.1933 34.2972 56.3468 35.7664C57.5003 37.2331 58.8972 37.9677 60.5376 37.9677C62.1779 37.9677 63.5637 37.2331 64.7172 35.7664C65.0713 35.3098 65.1958 34.6874 65.0879 33.8967L66.8555 36.0164C66.6895 35.848 66.4516 35.9245 66.139 36.2434L66.1363 36.2459Z" fill="#1F140F"/>
<path d="M74.7308 24.8671L75.5827 27.2393L77.2756 31.9939L79.0073 36.9321C79.815 39.0288 80.8966 40.4699 82.2464 41.253C79.8233 41.5259 78.3268 40.8398 77.757 39.1895L75.3946 33.2029H70.0172C68.5982 36.2969 67.9094 38.0493 67.9509 38.46H65.0685C66.0007 38.3911 67.6272 35.4042 69.9536 29.4967L71.4999 25.3339C72.0697 23.38 71.9867 22.2985 71.2537 22.0843H74.2716C74.0586 22.4796 74.2107 23.4081 74.728 24.8671H74.7308ZM72.8028 25.1069L70.5151 31.6163H74.8663L72.8028 25.1069Z" fill="#1F140F"/>
<path d="M83.9808 31.1496L83.3999 31.1598L83.4138 34.4094V37.4422C83.4138 37.9524 83.5244 38.2891 83.7485 38.4574H80.2852C81.0183 37.5009 81.3862 34.8022 81.3862 30.3614V26.5991C81.3862 24.1223 80.8965 22.6123 79.9146 22.0715H86.6917C87.953 22.1021 89.0235 22.5179 89.9059 23.3188C90.7884 24.1197 91.2282 25.3594 91.2282 27.0301C91.2282 27.9433 90.852 28.7799 90.0968 29.5452C89.3417 30.3078 87.9226 30.8231 85.8369 31.0909L94.8519 38.9574C95.7924 39.7328 96.4009 40.2225 96.6831 40.4291C96.9624 40.6332 97.3967 40.8245 97.9804 40.9979C96.6526 41.5821 95.3498 41.3372 94.0718 40.2557L83.9808 31.1445V31.1496ZM86.0527 29.7518C86.8244 29.6268 87.4828 29.3258 88.0305 28.8514C88.5782 28.3769 88.9018 27.6857 89.0014 26.7827C89.101 25.8772 88.8437 25.0304 88.2352 24.2396C87.6239 23.4489 86.3597 23.0357 84.44 22.9974L83.5631 23.0204V29.9405C84.4538 29.9405 85.2837 29.8767 86.0554 29.7518H86.0527Z" fill="#1F140F"/>
<path d="M103.925 23.1785L103.95 27.7954V33.3611C104.008 36.0291 104.204 37.7279 104.545 38.4574H100.514C101.339 37.9396 101.715 35.5011 101.64 31.1368L101.615 23.1785H97.9417C96.7052 23.1785 95.8726 23.5739 95.4438 24.3646V22.0715H107.042C109.994 22.1404 112.273 22.097 113.88 21.9465C113.518 22.8291 112.146 23.2423 109.762 23.1887L103.925 23.176V23.1785Z" fill="#1F140F"/>
<path d="M121 24.8671L121.855 27.2393L123.548 31.9939L125.28 36.9321C126.087 39.0288 127.166 40.4699 128.519 41.253C126.096 41.5259 124.599 40.8398 124.029 39.1895L121.667 33.2029H116.287C114.868 36.2969 114.182 38.0493 114.223 38.46H111.341C112.273 38.3911 113.9 35.4042 116.226 29.4967L117.772 25.3339C118.342 23.38 118.259 22.2985 117.526 22.0843H120.544C120.328 22.4796 120.483 23.4081 121 24.8671ZM119.072 25.1069L116.785 31.6163H121.136L119.072 25.1069Z" fill="#1F140F"/>
<path d="M141.57 33.6467C141.417 34.2462 141.008 35.0726 140.339 36.121C138.936 37.6412 137.102 38.4192 134.837 38.4574C131.935 38.5033 129.764 37.7177 128.32 36.1031C126.876 34.4885 126.157 32.5525 126.157 30.2925C126.157 28.0326 126.937 26.0813 128.494 24.4309C128.56 24.3544 128.63 24.283 128.704 24.2141C130.245 22.7245 132.339 22.0256 134.986 22.1174C137.293 22.1174 138.975 22.6046 140.032 23.5765C140.518 24.033 140.823 23.9667 140.947 23.3826V29.2901C140.748 27.8464 140.173 26.5812 139.216 25.4946C138.004 24.1351 136.541 23.454 134.826 23.454C133.111 23.454 131.661 24.1351 130.455 25.4946C129.246 26.8541 128.643 28.4968 128.643 30.4201C128.643 32.3433 129.169 33.9783 130.22 35.3226C131.271 36.6694 132.809 37.3555 134.84 37.3861V37.3734C136.267 37.3657 137.481 36.6847 138.488 35.3328C139.058 34.5727 139.299 33.8585 139.218 33.1902C139.135 32.5219 138.485 32.1342 137.271 32.027C136.054 31.9199 134.793 31.9046 133.481 31.9811L133.542 31.6623H142.383V32.1877C141.996 32.5601 141.725 33.0473 141.572 33.6467H141.57Z" fill="#1F140F"/>
<path d="M144.742 30.318L144.729 31.8918V37.3198H148.933C152.042 37.3198 153.685 36.7382 153.868 35.5751L153.472 38.46H141.885C142.527 37.5034 142.85 34.7818 142.85 30.2951V26.5557C142.85 24.0713 142.405 22.5766 141.514 22.0741H151.406C152.272 22.0741 152.795 21.995 152.977 21.8343V25.061C152.615 23.7601 151.68 23.1454 150.17 23.2142H144.729V29.0529H149.774C151.298 28.9993 152.17 28.7136 152.383 28.1984V31.0705C152.07 30.5374 151.417 30.2849 150.43 30.3053L144.742 30.318ZM154.609 35.5751C154.618 35.5598 154.623 35.5419 154.623 35.519L154.609 35.5751Z" fill="#1F140F"/>
<path d="M165.616 22.0741C165.353 22.4771 165.24 23.9897 165.281 26.6118V38.5033C165.281 38.7686 165.207 38.812 165.06 38.6283L155.995 26.5659V35.8582C155.995 37.3402 156.139 38.2075 156.427 38.4574H153.78C154.3 37.4856 154.56 34.7589 154.56 30.2823V26.5659C154.56 24.0891 154.178 22.5893 153.409 22.0741H156.587C156.355 22.3087 156.814 23.2423 157.959 24.8671L159.926 27.6372L163.846 33.157V25.8262C163.829 23.6377 163.367 22.3853 162.46 22.0741H165.613H165.616Z" fill="#1F140F"/>
<path d="M174.481 24.8671L175.336 27.2393L177.029 31.9939L178.761 36.9321C179.568 39.0288 180.647 40.4699 182 41.253C179.577 41.5259 178.08 40.8398 177.51 39.1895L175.148 33.2029H169.768C168.349 36.2969 167.663 38.0493 167.704 38.46H164.822C165.754 38.3911 167.381 35.4042 169.707 29.4967L171.253 25.3339C171.823 23.38 171.74 22.2985 171.007 22.0843H174.025C173.809 22.4796 173.964 23.4081 174.481 24.8671ZM172.553 25.1069L170.266 31.6163H174.617L172.553 25.1069Z" fill="#1F140F"/>
<path d="M79.3365 55.6187C79.7874 55.5932 80.0114 55.3841 80.0114 54.9964H80.1829C80.1912 55.5142 80.147 55.8151 80.0529 55.907C79.9589 55.9962 79.8206 56.0626 79.6352 56.0983H76.0779C76.2854 55.7922 76.4071 55.1953 76.4403 54.3051V49.0047C76.3905 47.9512 76.2079 47.3237 75.8898 47.1197H77.7487C77.5938 47.2039 77.5108 47.8951 77.5025 49.196V55.407C77.638 55.532 77.8649 55.6034 78.183 55.6238C78.5011 55.6442 78.8856 55.6417 79.3365 55.6162V55.6187Z" fill="#1F140F"/>
<path d="M88.097 51.5682L88.0914 52.3487V55.0423H90.1771C91.7179 55.0423 92.5339 54.754 92.6252 54.1776L92.4288 55.6085H86.6807C86.9988 55.1341 87.1592 53.7822 87.1592 51.558V49.7036C87.1592 48.4716 86.9379 47.7293 86.4981 47.4794H91.4053C91.834 47.4794 92.0941 47.4385 92.1853 47.3595V48.9613C92.0055 48.316 91.5408 48.0099 90.7912 48.0456H88.0914V50.9432H90.5948C91.3527 50.9177 91.7843 50.7749 91.8894 50.5198V51.9457C91.7345 51.683 91.4108 51.5554 90.9212 51.5656L88.0997 51.5707L88.097 51.5682ZM92.9931 54.175C92.9931 54.175 92.9986 54.1572 92.9986 54.147L92.9931 54.175Z" fill="#1F140F"/>
<path d="M106.179 53.2185C106.105 53.5169 105.9 53.9251 105.568 54.4454C104.874 55.2004 103.964 55.5856 102.838 55.606C101.397 55.6289 100.321 55.2387 99.6042 54.4377C98.8877 53.6368 98.5309 52.6752 98.5309 51.5554C98.5309 50.4356 98.9181 49.4664 99.6899 48.6476C99.7231 48.6093 99.7563 48.5736 99.795 48.5405C100.561 47.8007 101.599 47.4538 102.912 47.4998C104.058 47.4998 104.893 47.7421 105.416 48.2242C105.657 48.4512 105.809 48.418 105.87 48.1272V51.058C105.77 50.3413 105.485 49.7138 105.009 49.173C104.409 48.4971 103.681 48.1604 102.832 48.1604C101.983 48.1604 101.264 48.4971 100.664 49.173C100.063 49.849 99.7646 50.6627 99.7646 51.6166C99.7646 52.5706 100.025 53.3817 100.547 54.05C101.07 54.7183 101.834 55.0576 102.838 55.0729V55.0678C103.546 55.0652 104.149 54.726 104.647 54.0551C104.929 53.6776 105.051 53.3231 105.009 52.9915C104.968 52.6599 104.647 52.4686 104.044 52.415C103.441 52.3615 102.813 52.3563 102.163 52.3921L102.193 52.2339H106.58V52.4941C106.387 52.6803 106.254 52.9201 106.179 53.2185Z" fill="#1F140F"/>
<path d="M114.035 51.5682L114.03 52.3487V55.0423H116.115C117.659 55.0423 118.472 54.754 118.564 54.1776L118.367 55.6085H112.619C112.937 55.1341 113.098 53.7822 113.098 51.558V49.7036C113.098 48.4716 112.876 47.7293 112.436 47.4794H117.344C117.772 47.4794 118.032 47.4385 118.124 47.3595V48.9613C117.944 48.316 117.479 48.0099 116.732 48.0456H114.033V50.9432H116.536C117.291 50.9177 117.723 50.7749 117.83 50.5198V51.9457C117.676 51.683 117.352 51.5554 116.862 51.5656L114.041 51.5707L114.035 51.5682ZM118.931 54.175C118.931 54.175 118.937 54.1572 118.937 54.147L118.931 54.175Z" fill="#1F140F"/>
<path d="M130.674 47.4768C130.544 47.6758 130.488 48.4282 130.508 49.7291V55.6289C130.508 55.7616 130.472 55.782 130.397 55.6902L125.899 49.7036V54.3153C125.899 55.0499 125.971 55.481 126.115 55.606H124.801C125.058 55.1239 125.188 53.772 125.188 51.5503V49.7061C125.188 48.4767 124.998 47.7344 124.619 47.4768H126.195C126.082 47.5941 126.309 48.0558 126.876 48.8618L127.852 50.2367L129.797 52.9736V49.3363C129.789 48.2497 129.559 47.6298 129.111 47.4742H130.677L130.674 47.4768Z" fill="#1F140F"/>
<path d="M138.577 55.6111V55.606H137.393C137.711 55.1341 137.871 53.7899 137.871 51.5733V49.7291C137.871 48.4996 137.65 47.7497 137.21 47.4768H138.743C140.034 47.4589 140.933 47.5304 141.44 47.6987C141.946 47.8645 142.336 48.0788 142.607 48.344C143.456 48.9996 143.907 50.0505 143.957 51.4942C143.907 53.0476 143.592 54.1215 143.005 54.7132C142.422 55.305 141.749 55.606 140.994 55.6136H138.577V55.6111ZM141.531 54.8637C141.96 54.6112 142.292 54.1929 142.535 53.6088C142.776 53.0246 142.897 52.3589 142.897 51.609C142.897 50.8591 142.676 50.1091 142.236 49.3567C141.794 48.6042 141.235 48.1884 140.555 48.1094C139.874 48.0303 139.34 48.0252 138.953 48.0992L138.958 55.1545C140.247 55.2157 141.105 55.1188 141.531 54.8663V54.8637Z" fill="#1F140F"/>
<path d="M155.423 51.0351C155.279 49.8056 154.972 48.9843 154.499 48.5736C154.026 48.1629 153.564 47.9181 153.11 47.8416C152.656 47.765 152.294 47.8339 152.02 48.0482C151.749 48.2624 151.608 48.5915 151.597 49.0327C151.586 49.474 151.722 49.8107 152.006 50.0454C152.289 50.2801 152.831 50.6397 153.63 51.1295C154.43 51.6192 154.991 52.0401 155.315 52.3972C155.638 52.7543 155.807 53.1496 155.824 53.5833C155.824 54.2286 155.583 54.7566 155.105 55.1673C154.626 55.5779 154.017 55.7845 153.276 55.7845C152.798 55.7845 152.316 55.7004 151.829 55.532C151.343 55.3637 150.897 55.106 150.493 54.754V52.2263C150.787 53.3562 151.16 54.1699 151.614 54.6648C152.065 55.1596 152.557 55.4172 153.088 55.4376C153.619 55.458 154.037 55.3509 154.341 55.1137C154.643 54.8765 154.833 54.55 154.908 54.1342C154.983 53.7184 154.894 53.3282 154.637 52.9634C154.383 52.5987 153.81 52.2288 152.925 51.8564C152.04 51.4866 151.456 51.1295 151.174 50.7902C150.892 50.4459 150.751 50.0224 150.751 49.5174C150.751 48.918 150.953 48.4282 151.362 48.0482C151.769 47.6681 152.289 47.4794 152.922 47.4794C154.04 47.4666 155.005 47.8365 155.824 48.5813L155.425 51.0376L155.423 51.0351Z" fill="#1F140F"/>
<path d="M28.8041 2.47677C28.2287 2.5839 27.8304 2.66553 27.4293 2.7293C27.2357 2.7599 27.0171 2.70889 26.8456 2.77521C26.5414 2.89509 26.1956 3.03028 26.0158 3.2573C25.9439 3.34912 26.262 3.70368 26.3975 3.92814C25.3989 3.75979 24.1818 3.83376 23.8803 2.48443C23.9218 2.45637 24.0103 2.3977 24.1376 2.31353C23.5954 1.97683 23.1085 1.67074 22.6217 1.3672L22.6992 1.27283C23.2137 1.45903 23.7282 1.64268 24.2371 1.83909C24.3506 1.88245 24.5055 1.96153 24.5359 2.05335C24.724 2.63237 25.0753 2.63492 25.5732 2.37474C25.7502 2.28292 25.9992 2.25996 26.2094 2.27271C27.0088 2.32118 27.8055 2.39515 28.8013 2.47677H28.8041Z" fill="black"/>
<path d="M13.3246 29.6752C13.3246 29.6752 14.041 27.8591 15.4767 27.2979C16.9123 26.7368 18.8016 26.599 21.4018 24.5151C21.7282 24.2524 19.4793 26.8286 17.0783 27.3668C14.4947 27.9458 13.3246 29.6752 13.3246 29.6752Z" fill="#40290F"/>
<path d="M18.7629 47.1069C18.7629 47.1069 19.3631 53.2159 19.3521 53.5909C19.3078 57.0803 27.4569 58.6005 28.1513 53.5909L29.1 47.487C29.1 47.487 23.9799 41.6076 18.7629 47.1044V47.1069Z" fill="#40290F"/>
<path d="M19.3797 53.7746C19.3797 53.7746 16.6136 54.1189 11.7423 54.7617C6.86835 55.4045 6.56684 55.6927 6.56684 55.6927C6.56684 55.6927 5.76742 59.7229 9.12278 60.4422C12.4781 61.1589 17.3217 59.83 19.7061 61.1946C22.0933 62.5618 24.7572 64.6075 28.5191 63.2403C30.638 62.47 31.7722 61.4446 32.3558 60.6972C33.5591 59.1566 35.2575 58.0011 37.216 57.4247C37.2492 57.4145 37.2824 57.4042 37.3156 57.3966C40.6792 56.4273 41.7248 55.6238 41.7248 55.6238C41.7248 55.6238 37.1717 54.1087 28.1706 53.4481C28.1706 53.4481 27.7253 55.9886 25.0034 56.4095C23.4294 56.6518 20.1681 56.611 19.3797 53.7771V53.7746Z" fill="#E0040B"/>
<path d="M4.66095 55.8585C4.66095 55.8585 3.39681 59.0087 6.67196 60.8682C9.9471 62.7276 16.3895 61.8834 16.3895 61.8834C16.3895 61.8834 9.74794 64.0285 4.51435 63.0184C-0.31815 62.0849 -0.603065 57.213 0.591919 56.7385C1.7869 56.2641 3.32766 55.9937 4.66095 55.8585Z" fill="#009030"/>
<path d="M16.9399 61.6334C16.9399 61.6334 18.7822 62.4266 20.7683 65.082C22.7544 67.7373 26.4915 68.4311 28.8926 67.7653C31.2936 67.1021 33.7389 64.6024 34.0404 62.2608C34.0404 62.2608 30.6463 65.8599 26.6879 65.1177C22.7295 64.3754 19.4212 61.3681 16.9399 61.6334Z" fill="#F19800"/>
<path d="M32.8925 61.9573C32.8925 61.9573 34.7264 59.4168 37.1385 59.0393C39.5506 58.6618 43.249 57.2742 43.9129 56.0983C43.9129 56.0983 47.7689 56.7411 48.6154 57.5726C48.6154 57.5726 46.5435 59.8427 42.9613 59.8785C37.9214 59.9295 35.5065 60.5391 32.8897 61.9573H32.8925Z" fill="#2D73B5"/>
<mask id="mask0_409_835" style="mask-type:luminance" maskUnits="userSpaceOnUse" x="6" y="53" width="36" height="11">
<path d="M19.3797 53.7746C19.3797 53.7746 16.2346 54.1699 11.3606 54.8127C6.48662 55.4555 6.56684 55.6927 6.56684 55.6927C6.56684 55.6927 5.76742 59.7229 9.12278 60.4422C12.4781 61.1589 17.3217 59.83 19.7061 61.1946C22.0933 62.5618 24.7572 64.6075 28.5191 63.2403C30.638 62.47 31.7722 61.4446 32.3558 60.6972C33.5591 59.1566 35.2575 58.0011 37.216 57.4247C37.2492 57.4145 37.2824 57.4042 37.3156 57.3966C40.6792 56.4273 41.7248 55.6238 41.7248 55.6238C41.7248 55.6238 37.1717 54.1087 28.1706 53.4481C28.1706 53.4481 27.9936 56.06 25.2717 56.4809C23.6977 56.7232 20.4613 56.6875 19.377 53.7771L19.3797 53.7746Z" fill="white"/>
</mask>
<g mask="url(#mask0_409_835)">
<path d="M7.49075 52.8945C6.40917 54.9632 6.73282 57.843 9.02874 59.1285C10.4837 59.9448 11.9636 59.83 13.5846 59.8172C15.1641 59.8045 16.6661 60.0341 18.1433 60.5595C20.9509 61.5543 23.6258 63.1868 26.7709 62.8475C28.2038 62.6919 29.4292 62.1359 30.4887 61.2354C31.4098 60.4524 32.1345 59.478 33.1055 58.7408C34.306 57.8302 36.0431 57.6338 37.4511 57.0778C38.9504 56.486 40.3445 55.6825 41.4482 54.5627C42.3721 53.6292 40.8673 52.2339 39.9407 53.1726C39.0831 54.0398 38.0541 54.6673 36.9062 55.1621C35.725 55.6723 34.4388 55.907 33.2465 56.384C32.1982 56.8023 31.3517 57.4961 30.5855 58.2638C29.8552 58.9959 29.172 59.8376 28.2425 60.3682C25.9964 61.6487 23.197 60.5034 21.056 59.5979C19.7836 59.0597 18.5029 58.5036 17.1364 58.1975C15.7201 57.8787 14.243 57.8047 12.7907 57.8685C11.6511 57.9195 10.3371 57.843 9.66219 57.0752C8.8683 56.1722 8.79638 54.9071 9.33025 53.8842C9.92221 52.7492 8.08547 51.7493 7.48798 52.892L7.49075 52.8945Z" fill="#2D73B5"/>
<path d="M9.85303 52.767C7.6484 53.7797 8.06885 56.2029 9.71749 57.4986C10.6276 58.2128 11.64 58.5113 12.8294 58.5368C13.9885 58.5623 15.0562 58.4271 16.2125 58.6439C19.0063 59.1643 21.3935 60.7967 24.2288 61.1895C25.5815 61.3783 26.9479 61.3324 28.2204 60.8299C29.5537 60.3044 30.591 59.353 31.7307 58.5521C32.9616 57.6874 34.2645 57.1262 35.7167 56.662C37.1247 56.2131 38.5548 55.7641 39.7581 54.9326C40.2228 54.6112 40.4496 54.0857 40.1398 53.5883C39.8798 53.1675 39.1412 52.9175 38.682 53.2364C36.8951 54.4684 34.6351 54.7821 32.6601 55.6799C31.5177 56.2003 30.5135 56.9349 29.5288 57.6695C28.6076 58.3582 27.6976 59.0673 26.4971 59.2739C24.1624 59.6718 21.8416 58.4832 19.767 57.6746C18.6384 57.2333 17.4987 56.8507 16.2844 56.6671C15.2249 56.5089 14.2485 56.5344 13.1835 56.5702C12.2679 56.6008 11.4685 56.4401 10.8489 55.7718C10.3675 55.2514 10.2126 54.7948 10.9291 54.4658C12.1572 53.9021 11.0784 52.2033 9.85303 52.767Z" fill="#F19800"/>
</g>
<path d="M18.0962 38.4064C17.4212 40.2684 15.3328 41.6076 13.2056 41.5412C11.0784 41.4775 9.08953 40.0134 8.55012 38.1156C6.38422 38.0799 4.29576 36.8326 3.36909 35.0267C2.44243 33.2208 2.72458 30.9404 4.06893 29.3742C2.78543 28.7315 1.67343 28.7162 1.01232 25.8848C0.705274 24.5687 1.80897 22.375 2.30135 21.1073C0.826985 19.2963 1.02062 17.6766 2.11879 15.6513C3.21695 13.626 5.96376 12.394 8.28734 13.121C10.0439 9.44282 15.1142 7.4456 19.2109 8.81534C19.4433 8.89186 19.6812 8.98114 19.9274 8.97348C20.1874 8.96583 21.197 7.79505 21.4322 7.69557C23.6257 6.7518 25.1969 6.33603 27.5675 6.77985C28.7044 6.99156 31.2023 8.40722 31.6366 9.39691C33.9601 8.46589 36.7872 8.40977 38.9337 9.64688C41.0803 10.8865 42.2752 13.5546 41.2905 15.7074C42.6846 15.5799 44.0788 16.2405 44.975 17.2353C45.8713 18.2301 46.2502 19.786 46.3913 21.0716C46.5711 22.7117 45.1382 24.5687 43.6777 25.5201C46.5849 26.7215 46.7343 31.8076 43.0857 32.8356C45.5642 34.8838 43.8409 38.9242 40.444 40.0465C37.8272 40.9087 34.6296 39.8731 33.1248 37.6947C32.3668 38.6207 30.9008 38.687 29.6477 38.5875C27.5869 38.4217 25.5482 38.0314 23.5842 37.4295C23.2025 37.3121 22.8097 37.1846 22.4114 37.2229C22.0407 37.2586 21.7032 37.432 21.3658 37.58C20.4391 37.983 19.4239 38.2074 18.4004 38.2329" fill="#1F140F"/>
<path d="M11.2887 33.1417C11.2887 33.1417 7.62905 33.0345 7.3801 27.5249C7.13114 22.0154 11.2942 20.9109 12.2679 20.7528C13.2388 20.5921 15.2249 21.143 17.2442 19.7274C17.2442 19.7274 16.951 21.3216 14.5306 22.6479C12.1102 23.9743 8.05228 26.9561 11.2887 33.1417Z" fill="#009CDE"/>
<path d="M11.1449 33.5141C11.1449 33.5141 12.9678 42.9824 18.6799 47.9461C24.392 52.9099 25.7198 51.2289 29.6948 47.9461C33.6698 44.6633 37.3128 38.7048 37.3128 38.7048C37.3128 38.7048 42.9447 28.9304 34.3309 23.5076C25.717 18.0847 8.57509 21.8266 11.1421 33.5115L11.1449 33.5141Z" fill="#51300C"/>
<path d="M20.4613 44.3598C20.4613 44.3598 22.4502 42.8319 23.0698 42.9084C23.6922 42.9849 24.6437 44.0154 24.6437 44.0154C24.6437 44.0154 25.9273 42.8268 26.5911 42.9059C27.255 42.9849 29.1028 44.3598 29.1028 44.3598C29.1028 44.3598 27.8912 45.1786 27.1361 45.8775C26.3837 46.5764 23.8554 47.4921 22.0131 45.6785C22.0131 45.6785 21.4959 45.0663 20.4613 44.3623V44.3598Z" fill="#E0040B"/>
<path d="M36.0625 40.8015C36.1952 40.7301 40.3943 36.3582 40.3943 31.4684C40.3943 26.5786 36.2976 24.4233 36.2976 24.4233C36.2976 24.4233 36.3308 33.6314 35.5258 35.4629C34.7209 37.2968 36.0625 40.799 36.0625 40.799V40.8015Z" fill="#2D73B5"/>
<path d="M31.1747 19.6814C31.1747 19.6814 40.6184 19.5769 39.6474 29.4125C39.6474 29.4125 34.7237 22.9617 28.8649 22.9617C28.8649 22.9617 25.5843 22.8903 22.6355 24.5482C22.6355 24.5482 21.8665 24.6885 20.6937 25.5354C20.6937 25.5354 23.2717 18.906 31.1747 19.684V19.6814Z" fill="#2D73B5"/>
<path d="M12.3094 27.2367C12.3094 27.2367 12.8626 21.3394 23.8747 20.8905C23.8747 20.8905 24.605 21.8674 22.8042 23.3826C21.0007 24.8952 17.3134 28.0377 12.3122 27.2367H12.3094Z" fill="#009CDE"/>
<path d="M30.4361 25.4512C30.4361 25.4512 34.5439 26.344 35.7942 33.8176C35.7942 33.8176 36.1953 36.4041 36.8647 36.7076C36.8647 36.7076 36.5521 34.7563 37.6696 32.1239C38.7872 29.4916 37.346 23.0051 33.3821 22.7219C29.4209 22.4388 28.9617 22.8163 26.9535 24.2269C26.9535 24.2269 29.4043 24.6171 30.4361 25.4487V25.4512Z" fill="#009CDE"/>
<path d="M14.0493 22.4669C14.0493 22.4669 17.5126 14.404 30.2037 19.9518C30.2037 19.9518 26.9507 21.5792 23.67 21.7067C20.3894 21.8317 16.3259 21.5512 14.0493 22.4669Z" fill="#2D73B5"/>
<path d="M11.817 27.1908C11.817 27.1908 4.86566 36.0317 13.4767 40.8015C13.4767 40.8015 9.89732 35.1823 14.2734 28.6498C14.2734 28.6498 16.1931 26.8159 17.6675 26.7215C17.6675 26.7215 15.4352 25.8287 11.817 27.1908Z" fill="#2D73B5"/>
<path d="M12.5334 32.7514C12.5334 32.7514 9.04807 31.7184 10.4588 26.3593C11.8696 21.0002 16.2014 21.0002 17.1834 21.0945C18.1654 21.1889 19.908 22.222 22.2731 21.3777C22.2731 21.3777 21.5152 22.8341 18.7905 23.4922C16.0658 24.1503 11.2721 25.9843 12.5307 32.754L12.5334 32.7514Z" fill="#2D73B5"/>
<path d="M8.27356 16.9292C8.27356 16.9292 13.8363 13.7816 21.9467 12.4246C30.0571 11.0676 38.7899 10.5345 39.6447 11.1467C40.4994 11.7589 27.432 18.679 18.359 18.827C9.28597 18.9749 8.06056 17.3118 8.27356 16.9318V16.9292Z" fill="#CABC9F"/>
<path opacity="0.36" d="M22.4253 12.241L24.2842 12.0573L26.4528 12.0369L26.5054 11.7512C26.5054 11.7512 32.2341 11.0753 34.4581 10.986L34.436 11.6824C34.436 11.6824 34.6462 11.6696 34.5909 12.093L37.476 12.0395L37.4235 12.8072L37.3322 14.0214L35.3378 14.9397L33.017 15.5977C33.017 15.5977 33.0087 13.7051 31.4458 13.7689C29.8829 13.8326 29.4818 15.2508 29.5952 17.0568C29.7086 18.8652 26.605 17.9062 26.605 17.9062L25.4072 17.7047L22.5442 12.7945V13.6541C22.5442 13.6541 17.7947 12.1185 20.5803 18.9749C20.5941 19.0846 19.5098 19.1968 19.5098 19.1968L17.8473 13.6184L22.4225 12.2359L22.4253 12.241Z" fill="#40290F"/>
<path d="M30.3697 0C30.3725 0.165798 30.3753 0.331595 30.378 0.497393C30.378 0.543306 30.3863 0.573915 30.4361 0.604524C30.5385 0.668292 30.544 0.790727 30.4638 0.877452C30.4416 0.900409 30.4306 0.928467 30.4223 0.93867C30.5385 0.987134 30.6408 1.02539 30.7376 1.06876C30.8455 1.11977 30.8455 1.29322 30.7459 1.35699C30.7238 1.36974 30.7044 1.41311 30.71 1.43606C30.84 1.96662 30.9727 2.49717 31.1083 3.02772C31.1166 3.05833 31.1276 3.08894 31.1359 3.11445C31.147 3.117 31.1525 3.1221 31.1581 3.1221C31.2992 3.09404 31.3434 3.17056 31.3821 3.27514C31.4402 3.43584 31.5094 3.59398 31.5785 3.75213C31.6256 3.85926 31.6588 3.96639 31.6643 4.08628C31.6671 4.14239 31.7334 4.19596 31.7694 4.25207C31.7749 4.24952 31.7832 4.24442 31.7888 4.24187C31.7888 4.24697 31.7915 4.25462 31.7888 4.25717C31.6615 4.40257 31.6394 4.56836 31.6477 4.75202C31.6671 5.14993 31.6671 5.54784 31.6698 5.94576C31.6698 6.00698 31.6947 6.03759 31.7528 6.06054C32.0156 6.17277 32.2784 6.29011 32.5439 6.40489C32.5384 6.4253 32.5356 6.4406 32.5246 6.45591C32.4194 6.61915 32.4056 6.79515 32.4112 6.98136C32.4305 7.58843 32.436 8.19551 32.4471 8.80258C32.4471 8.83574 32.4471 8.87145 32.4471 8.91481H32.6878C32.6878 9.05765 32.6988 9.19284 32.6933 9.32803C32.6905 9.402 32.721 9.42751 32.7929 9.44792C33.1912 9.56525 33.5895 9.68513 33.9989 9.81012C33.963 9.88409 33.927 9.95041 33.8966 10.0218C33.88 10.0575 33.8662 10.0984 33.8662 10.1366C33.8745 10.7437 33.8883 11.3508 33.8966 11.9578C33.8966 12.0089 33.9104 12.0369 33.963 12.0548C34.0045 12.0675 34.0404 12.0956 34.0791 12.1083C34.2175 12.1568 34.3364 12.2129 34.27 12.3915C35.1054 12.3787 35.927 12.366 36.7513 12.3532C36.7513 12.4833 36.7568 12.6032 36.7568 12.7307C36.7125 12.7333 36.671 12.7384 36.6157 12.7409C36.6406 14.154 36.6683 15.5671 36.6932 16.9879C35.1386 17.0108 33.5923 17.0363 32.0377 17.0593C32.0377 17.0261 32.0377 16.993 32.0377 16.9624C32.0267 16.4063 32.0101 15.8528 32.0101 15.2967C32.0101 14.9524 31.8745 14.6591 31.6588 14.3938C31.3572 14.0214 30.9368 13.8862 30.4472 13.9372C29.9659 13.9882 29.6339 14.2433 29.4237 14.6387C29.302 14.8657 29.2328 15.1029 29.2439 15.3631C29.2633 15.9217 29.2688 16.4777 29.2771 17.0363C29.2771 17.0568 29.2771 17.0772 29.2771 17.1001C27.728 17.1231 26.1873 17.1486 24.6299 17.1715C24.605 15.7584 24.5774 14.3428 24.5525 12.9246C24.4971 12.922 24.4557 12.9195 24.4059 12.9169C24.4059 12.7945 24.4003 12.6746 24.4003 12.5471C25.1942 12.5343 25.9881 12.5216 26.7765 12.5113C26.7848 12.496 26.7931 12.4909 26.7903 12.4858C26.7543 12.343 26.8318 12.2665 26.9701 12.2257C27.1195 12.1798 27.172 12.0956 27.1665 11.9374C27.1416 11.3712 27.1416 10.8049 27.1305 10.2386C27.1305 10.2029 27.1167 10.1647 27.1001 10.1315C27.0669 10.0601 27.0254 9.99377 26.9839 9.91725C27.2937 9.81267 27.5953 9.71319 27.8968 9.61371C27.9936 9.58055 28.0904 9.54739 28.1872 9.51934C28.2508 9.50148 28.2757 9.47342 28.273 9.40711C28.2647 9.26937 28.2647 9.12907 28.2647 8.98113C28.3449 8.98113 28.4196 8.98113 28.5026 8.97858C28.5026 8.94287 28.5053 8.91481 28.5026 8.88676C28.4915 8.20061 28.4804 7.51446 28.4611 6.82831C28.4611 6.73904 28.3974 6.64976 28.3642 6.56304C28.3532 6.53498 28.3366 6.50692 28.32 6.47376C28.5855 6.34622 28.8456 6.21869 29.1111 6.0937C29.1637 6.06819 29.1803 6.04269 29.1775 5.98912C29.1664 5.51724 29.1609 5.0479 29.1498 4.57602C29.1498 4.5352 29.1305 4.49184 29.1083 4.45613C29.0752 4.39746 29.0337 4.3439 28.9866 4.27758C28.9977 4.26993 29.0115 4.26228 29.0254 4.25462C29.1083 4.21381 29.1305 4.15259 29.1249 4.06842C29.1222 4.00465 29.136 3.93578 29.1581 3.87456C29.2328 3.6603 29.3158 3.44859 29.3933 3.23433C29.4182 3.16801 29.4541 3.1323 29.5343 3.14505C29.5565 3.1476 29.5786 3.14505 29.609 3.14505C29.6533 2.9461 29.6948 2.74969 29.7363 2.55328C29.8137 2.18598 29.8912 1.81867 29.9714 1.45137C29.9825 1.40035 29.9659 1.37995 29.9244 1.35699C29.8276 1.30598 29.8248 1.12742 29.9244 1.07896C30.0212 1.0305 30.1208 0.989685 30.2369 0.93867C30.2342 0.933568 30.2259 0.90296 30.2065 0.885104C30.0931 0.785626 30.1097 0.635133 30.2508 0.581567C30.3033 0.561161 30.3033 0.535654 30.3033 0.497393C30.3006 0.331595 30.2978 0.165798 30.295 0L30.3697 0ZM30.497 8.12664C30.8953 8.12919 31.2632 7.8282 31.2549 7.40733C31.2466 6.99411 30.8759 6.71098 30.4859 6.71353C30.0682 6.71353 29.7086 7.02472 29.7169 7.43539C29.7252 7.85881 30.1125 8.14194 30.497 8.12664ZM30.9921 11.3559C30.9866 11.0727 30.981 10.7973 30.9755 10.5192C30.9755 10.509 30.9755 10.4963 30.97 10.4861C30.9036 10.2871 30.6906 10.1825 30.4361 10.2208C30.248 10.2488 30.1042 10.4197 30.1097 10.6111C30.1097 10.7156 30.1125 10.8202 30.1152 10.9248C30.1152 11.0727 30.1208 11.2181 30.1235 11.3712C30.4167 11.3661 30.6989 11.3635 30.9949 11.3584L30.9921 11.3559Z" fill="#F19800"/>
<path d="M30.674 7.4252C30.674 7.52468 30.5938 7.6012 30.4887 7.60375C30.3808 7.60375 30.295 7.52468 30.295 7.42265C30.295 7.32827 30.3808 7.2441 30.4831 7.24155C30.5883 7.24155 30.674 7.32317 30.6768 7.4252H30.674Z" fill="#F19800"/>
<path d="M23.8996 6.19573C22.3174 3.24708 20.1487 2.68337 18.8043 2.65276C18.7988 2.60174 18.7933 2.55073 18.7795 2.49716C18.6411 1.99212 18.0824 1.68603 17.5319 1.81357C16.9842 1.9411 16.6523 2.45635 16.7906 2.96395C16.8016 3.00476 16.821 3.04047 16.8348 3.07873C13.8833 4.46888 13.7893 7.3155 13.8225 8.72095C13.8584 10.2361 12.7492 10.4963 12.7492 10.4963L12.8792 10.9681L14.7187 11.9757L18.052 24.0534L20.9758 23.3673L18.7795 15.409C18.4862 14.3428 19.1833 13.2587 20.3396 12.9883C21.4958 12.718 22.6714 13.3607 22.9647 14.4269L25.161 22.3852L28.1678 21.6787L24.7544 9.31527L26.0213 8.10367L25.9051 7.68535C24.4418 7.72361 23.8913 6.19062 23.8913 6.19062L23.8996 6.19573Z" fill="#643E00"/>
<mask id="mask1_409_835" style="mask-type:luminance" maskUnits="userSpaceOnUse" x="12" y="1" width="17" height="24">
<path d="M23.8996 6.19573C22.3174 3.24708 20.1487 2.68337 18.8043 2.65276C18.7988 2.60174 18.7933 2.55073 18.7795 2.49716C18.6411 1.99212 18.0824 1.68603 17.5319 1.81357C16.9842 1.9411 16.6523 2.45635 16.7906 2.96395C16.8016 3.00476 16.821 3.04047 16.8348 3.07873C13.8833 4.46888 13.7893 7.3155 13.8225 8.72095C13.8584 10.2361 12.7492 10.4963 12.7492 10.4963L12.8792 10.9681L14.7187 11.9757L18.052 24.0534L20.9758 23.3673L18.7795 15.409C18.4862 14.3428 19.1833 13.2587 20.3396 12.9883C21.4958 12.718 22.6714 13.3607 22.9647 14.4269L25.161 22.3852L28.1678 21.6787L24.7544 9.31527L26.0213 8.10367L25.9051 7.68535C24.4418 7.72361 23.8913 6.19062 23.8913 6.19062L23.8996 6.19573Z" fill="white"/>
</mask>
<g mask="url(#mask1_409_835)">
<path d="M14.467 12.2818C18.4503 11.7512 22.5968 11.361 26.0268 9.2464C26.3283 9.0602 26.0462 8.60617 25.7391 8.79237C22.3533 10.8789 18.2456 11.2513 14.3149 11.7742C13.9553 11.8226 14.1074 12.3277 14.467 12.2792V12.2818Z" fill="#CABC9F"/>
<path d="M14.5168 14.3249C16.7712 14.1923 18.9759 13.6847 21.1611 13.1873C23.1749 12.7307 25.1749 12.167 26.9424 11.1416C27.2522 10.963 26.9673 10.509 26.6548 10.6876C24.9259 11.6926 22.9785 12.2359 21.0118 12.6822C18.8763 13.1669 16.7187 13.6719 14.5196 13.7995C14.1572 13.8199 14.1544 14.3453 14.5196 14.3249H14.5168Z" fill="#CABC9F"/>
<path d="M15.2775 15.9344C19.0838 15.0595 23.3381 15.21 26.6271 12.9705C26.9175 12.7715 26.6354 12.3175 26.3394 12.5164C23.0975 14.7228 18.8818 14.5647 15.1281 15.4268C14.7741 15.5084 14.9234 16.0135 15.2803 15.9319L15.2775 15.9344Z" fill="#CABC9F"/>
<path d="M15.449 17.4317C16.4559 17.5694 17.5679 17.4445 18.5775 17.373C19.7117 17.294 20.8403 17.1613 21.9578 16.9675C24.2011 16.5798 26.3781 15.9319 28.4223 15.0009C28.7515 14.8504 28.4638 14.3989 28.1346 14.5468C26.2011 15.4294 24.1458 16.0416 22.0297 16.4216C20.9647 16.6129 19.8859 16.7481 18.8044 16.8297C17.7836 16.9088 16.6163 17.0644 15.5956 16.9241C15.2388 16.8756 15.0839 17.3807 15.4435 17.4292L15.449 17.4317Z" fill="#CABC9F"/>
<path d="M24.9286 16.2074C25.1112 16.5925 25.3103 16.9675 25.5289 17.3373C25.6008 17.4572 25.7917 17.5057 25.9189 17.4317C26.0461 17.3577 26.0987 17.2021 26.0213 17.0721C25.8027 16.7047 25.6008 16.3272 25.421 15.9421C25.3601 15.8171 25.1499 15.7763 25.031 15.8477C24.8899 15.9319 24.865 16.0722 24.9286 16.2074Z" fill="#CABC9F"/>
<path d="M16.1544 15.6487C16.2263 15.9701 16.2816 16.2992 16.3784 16.6155C16.4586 16.8757 16.561 17.1358 16.6938 17.3781C16.7602 17.5006 16.9593 17.5465 17.0838 17.4725C17.2193 17.3909 17.2581 17.2455 17.1861 17.1129C17.1585 17.0619 17.1336 17.0108 17.1087 16.9598C17.1336 17.0108 17.0921 16.919 17.0866 16.9114C17.0727 16.8808 17.0589 16.8476 17.0478 16.817C17.0008 16.6971 16.9566 16.5772 16.9206 16.4548C16.8293 16.1461 16.774 15.8222 16.7048 15.5085C16.6744 15.3733 16.4946 15.284 16.3563 15.3248C16.2014 15.3707 16.1267 15.5034 16.1571 15.6462L16.1544 15.6487Z" fill="#CABC9F"/>
<path d="M23.2579 12.6083C23.3768 12.8225 23.4903 13.0419 23.5981 13.2613C23.6258 13.3174 23.6507 13.3709 23.6784 13.4271C23.6894 13.45 23.7005 13.4755 23.7116 13.4985C23.7254 13.5265 23.7254 13.5291 23.7171 13.5087C23.7254 13.524 23.7309 13.5393 23.7392 13.5571C23.789 13.6694 23.8388 13.7816 23.8858 13.8938C23.9384 14.0214 24.0795 14.1234 24.2344 14.0775C24.3699 14.0367 24.4916 13.8913 24.4335 13.7561C24.2316 13.2766 24.0048 12.8047 23.7503 12.3455C23.6811 12.2231 23.4847 12.1772 23.3602 12.2512C23.2247 12.3328 23.186 12.4782 23.2579 12.6108V12.6083Z" fill="#CABC9F"/>
<path d="M16.8404 11.815C17.0036 12.3966 17.1336 12.9858 17.2304 13.5801C17.2525 13.7204 17.4462 13.7969 17.579 13.7638C17.7422 13.723 17.8002 13.5827 17.7781 13.4424C17.6813 12.848 17.5513 12.2614 17.3881 11.6773C17.3494 11.5395 17.1834 11.4579 17.0396 11.4936C16.8902 11.5319 16.8017 11.6798 16.8404 11.815Z" fill="#CABC9F"/>
<path d="M20.5525 11.111C20.7379 11.741 21.0062 12.3506 21.3492 12.9194C21.4239 13.0444 21.6092 13.0827 21.7392 13.0138C21.8692 12.945 21.9163 12.7792 21.8416 12.6542C21.5207 12.116 21.28 11.565 21.103 10.9707C21.0615 10.8329 20.9011 10.7513 20.7545 10.787C20.6079 10.8227 20.5166 10.9732 20.5553 11.1084L20.5525 11.111Z" fill="#CABC9F"/>
</g>
<path d="M8.37317 17.2889C8.37317 17.2889 14.3011 25.0252 23.1666 24.7498C32.0322 24.4743 41.0665 18.2097 39.6862 11.2003C39.6862 11.2003 25.5732 21.819 8.37317 17.2889Z" fill="#40290F"/>
<path d="M10.196 19.2453C10.196 19.2453 11.2748 20.3446 11.7396 20.5844C13.2997 21.3853 16.2927 21.7118 18.7878 21.6455C21.2828 21.5817 24.1929 20.6074 24.937 20.3574C25.6811 20.11 27.2246 20.0334 27.2246 20.0334C29.7833 20.3166 34.4387 17.5159 35.3848 16.7761C36.3308 16.0339 39.0416 15.891 39.0416 15.891C39.0416 15.891 39.227 15.46 39.2823 15.312C39.3349 15.1666 39.4787 14.7152 39.4787 14.7152C39.4787 14.7152 36.3059 14.3606 34.9726 15.6105C33.6393 16.8603 28.1402 19.0157 26.6547 19.0055C25.1693 18.9978 23.789 19.5513 20.3258 20.2477C20.3258 20.2477 14.9373 21.1379 10.196 19.2427V19.2453Z" fill="#643E00"/>
<path d="M18.1958 24.0738C18.1958 24.0738 23.2468 24.5814 26.2619 22.9846C29.2771 21.3879 33.2935 20.7298 33.2935 20.7298C33.2935 20.7298 36.2202 19.8753 37.1551 18.7071C37.1551 18.7071 35.9961 20.0513 34.4083 21.0894C34.4083 21.0894 33.6504 21.2808 33.2438 21.3904C32.8344 21.5001 29.0309 22.5128 27.894 22.9489C26.7571 23.3877 24.652 24.5227 21.352 24.6936C21.352 24.6936 19.5623 24.5533 18.1958 24.0738Z" fill="#643E00"/>
<path d="M21.0615 25.2166C21.0615 25.2166 24.2758 21.3139 27.3131 21.7374C30.3503 22.1608 29.858 23.7116 32.6711 23.9004C35.4843 24.0891 35.7969 23.9004 35.7969 23.9004C35.7969 23.9004 33.4291 26.4639 30.9312 26.2879C28.4306 26.1093 24.9923 25.4997 19.7227 27.6142C19.7227 27.6142 19.7974 26.5072 21.0615 25.2166Z" fill="#2D73B5"/>
<path d="M13.6925 41.1535C13.6925 41.1535 10.0771 35.6541 11.817 31.5628C13.5597 27.4739 14.3619 27.0505 16.9068 26.4868C19.4517 25.9231 21.2607 24.7957 22.3312 22.4669C22.3312 22.4669 21.5954 27.8974 18.312 29.3768C15.0313 30.8588 12.6856 34.5242 13.6897 41.1535H13.6925Z" fill="#009CDE"/>
<path d="M8.30122 26.9128C8.30122 26.9128 7.88629 22.148 12.0715 21.7067C12.0715 21.7067 9.6677 22.7602 8.30122 26.9128Z" fill="white"/>
<path d="M16.774 23.7269C16.774 23.7269 12.5639 23.2729 12.0687 28.3718C12.0687 28.3718 14.0991 24.4207 16.774 23.7269Z" fill="#56ACDE"/>
<path d="M22.7102 24.1529C22.7102 24.1529 25.9743 20.916 29.3656 22.6684C29.3656 22.6684 30.4112 23.454 30.7293 23.6325C31.0474 23.8111 32.8095 24.2779 33.9187 24.1299C33.9187 24.1299 32.0682 24.709 29.7501 24.158C27.4321 23.607 25.7198 23.2729 22.7102 24.1529Z" fill="#56ACDE"/>
<path d="M12.9097 30.4787C12.9097 30.4787 13.4961 28.1473 15.8529 27.3668C18.2096 26.5863 19.6453 26.1016 20.6383 25.288C20.6383 25.288 19.6066 27.7571 16.4697 28.1652C13.3329 28.5733 12.9097 30.4813 12.9097 30.4813V30.4787Z" fill="white"/>
<path d="M10.1241 32.1596C10.1241 32.1596 8.66357 36.3607 12.0715 39.4649C12.0715 39.4649 9.71195 36.3581 10.1241 32.1596Z" fill="#56ACDE"/>
<path d="M34.7734 25.4844C34.7734 25.4844 37.5341 28.053 37.0638 32.6137C37.0638 32.6137 38.5797 27.2393 34.7734 25.4844Z" fill="white"/>
<path d="M35.7942 22.4669C35.7942 22.4669 38.7485 25.1094 39.1219 28.1626C39.1219 28.1626 39.4953 23.6683 35.7942 22.4669Z" fill="#56ACDE"/>
<path d="M39.7166 30.7338C39.7166 30.7338 40.4468 35.2129 36.2644 40.4317C36.2644 40.4317 39.6364 34.7563 39.7166 30.7338Z" fill="white"/>
<path d="M25.3602 22.6377C25.3602 22.6377 27.4735 21.643 29.1 22.6377C29.1 22.6377 29.3877 22.8265 29.7805 23.1224C29.7805 23.1224 28.0821 22.1633 25.3602 22.6377Z" fill="white"/>
<path d="M13.9221 24.4233C13.9221 24.4233 11.8945 26.0634 11.9968 28.3718C11.9968 28.3718 11.344 25.7446 13.9221 24.4233Z" fill="white"/>
<path d="M10.0743 33.1417C10.0743 33.1417 10.1463 36.7994 11.8309 39.1155C11.8309 39.1155 10.4395 36.001 10.0743 33.1417Z" fill="white"/>
<path d="M36.2949 22.6582C36.2949 22.6582 37.7665 23.3163 38.5244 24.9028C38.5244 24.9028 37.4788 23.4438 36.2949 22.6582Z" fill="white"/>
<path d="M21.2718 34.366C21.2718 34.366 19.4544 32.7055 17.7615 33.2616C16.0686 33.8176 15.4988 34.1773 15.4988 34.1773C15.4988 34.1773 16.4365 33.2565 17.4849 32.8075C18.5333 32.3586 20.4889 32.5984 21.3603 33.4376C22.2316 34.2768 21.6535 34.4808 21.2745 34.3686L21.2718 34.366Z" fill="black"/>
<path d="M28.024 34.6645C28.024 34.6645 29.8414 33.0039 31.5343 33.56C33.2272 34.1161 33.797 34.4757 33.797 34.4757C33.797 34.4757 32.8593 33.5549 31.8109 33.106C30.7625 32.657 28.8068 32.8968 27.9355 33.736C27.0641 34.5752 27.6423 34.7793 28.0212 34.667L28.024 34.6645Z" fill="black"/>
<path d="M20.4613 44.3598C20.4613 44.3598 22.2344 44.3981 23.2883 44.6531C24.3422 44.9082 25.0365 45.0204 25.9521 44.6531C26.865 44.2858 29.1028 44.3598 29.1028 44.3598L27.3186 45.7142C27.3186 45.7142 25.93 47.0381 23.9328 46.681C23.9328 46.681 22.7074 46.505 21.9329 45.5739C21.9329 45.5739 20.9509 44.6149 20.4613 44.3598Z" fill="#B41117"/>
<path d="M21.8167 37.103C21.5512 37.5417 21.1252 37.8656 20.6439 38.1003C20.1598 38.3299 19.5983 38.4523 19.034 38.4319C18.4724 38.414 17.9054 38.2635 17.4489 37.9779C16.9815 37.71 16.6191 37.3223 16.384 36.881C16.9068 37.029 17.3355 37.2075 17.7837 37.3019C18.2179 37.4244 18.6439 37.4677 19.0672 37.4881C19.9247 37.5264 20.7905 37.3453 21.8167 37.1004V37.103Z" fill="black"/>
<path d="M17.626 37.608C17.543 37.7891 17.4462 37.9294 17.3327 38.0748C17.2193 38.2176 17.0893 38.3477 16.9455 38.46C16.655 38.687 16.2761 38.812 15.922 38.7864C16.2761 38.7278 16.5665 38.5416 16.7629 38.2942C16.8597 38.1717 16.9399 38.0365 17.0008 37.8962C17.0617 37.7585 17.1142 37.6029 17.1363 37.4754L17.6287 37.6055L17.626 37.608Z" fill="black"/>
<path d="M18.5444 38.034C18.4614 38.2151 18.3646 38.3554 18.2511 38.5008C18.1377 38.6436 18.0077 38.7737 17.8639 38.8859C17.5734 39.1129 17.1945 39.2379 16.8404 39.2124C17.1945 39.1537 17.4849 38.9675 17.6813 38.7201C17.7781 38.5977 17.8583 38.4625 17.9192 38.3222C17.9801 38.1845 18.0326 38.0289 18.0547 37.9013L18.5471 38.0314L18.5444 38.034Z" fill="black"/>
<path d="M19.5291 38.2839C19.4461 38.465 19.3493 38.6053 19.2359 38.7507C19.1225 38.8936 18.9925 39.0237 18.8486 39.1359C18.5582 39.3629 18.1792 39.4879 17.8251 39.4624C18.1792 39.4037 18.4697 39.2175 18.6661 38.9701C18.7629 38.8477 18.8431 38.7125 18.9039 38.5722C18.9648 38.4344 19.0174 38.2788 19.0395 38.1513L19.5319 38.2814L19.5291 38.2839Z" fill="black"/>
<path d="M27.634 37.103C28.6602 37.3478 29.5233 37.5289 30.3835 37.4907C30.8095 37.4728 31.2355 37.4269 31.6698 37.3045C32.1179 37.2101 32.5467 37.029 33.0695 36.8836C32.8344 37.3249 32.472 37.7126 32.0045 37.9804C31.5481 38.2661 30.981 38.414 30.4195 38.4344C29.8552 38.4549 29.2937 38.3324 28.8096 38.1029C28.331 37.8656 27.9023 37.5442 27.6367 37.1055L27.634 37.103Z" fill="black"/>
<path d="M32.3171 37.4754C32.3393 37.6055 32.3918 37.7611 32.4527 37.8962C32.5163 38.0365 32.5937 38.1692 32.6906 38.2942C32.8842 38.539 33.1774 38.7278 33.5315 38.7864C33.1774 38.8094 32.7984 38.687 32.508 38.46C32.3642 38.3477 32.2341 38.2151 32.1207 38.0748C32.0073 37.9294 31.9105 37.7891 31.8275 37.608L32.3199 37.4779L32.3171 37.4754Z" fill="black"/>
<path d="M31.3987 37.9039C31.4209 38.034 31.4734 38.1896 31.5343 38.3248C31.5979 38.4651 31.6753 38.5977 31.7722 38.7227C31.9658 38.9676 32.259 39.1563 32.6131 39.215C32.259 39.2379 31.88 39.1155 31.5896 38.8885C31.4458 38.7763 31.3157 38.6436 31.2023 38.5033C31.0889 38.3579 30.9921 38.2176 30.9091 38.0365L31.4015 37.9064L31.3987 37.9039Z" fill="black"/>
<path d="M30.4112 38.1539C30.4333 38.284 30.4859 38.4396 30.5467 38.5747C30.6103 38.715 30.6878 38.8477 30.7846 38.9727C30.9782 39.2175 31.2715 39.4063 31.6255 39.4649C31.2715 39.4879 30.8925 39.3655 30.602 39.1385C30.4582 39.0262 30.3282 38.8936 30.2148 38.7533C30.1014 38.6079 30.0046 38.4676 29.9216 38.2865L30.4139 38.1564L30.4112 38.1539Z" fill="black"/>
</g>
<defs>
<clipPath id="clip0_409_835">
<rect width="182" height="68" fill="white"/>
</clipPath>
</defs>
</svg>
