<svg width="21" height="21" viewBox="0 0 21 21" fill="none" xmlns="http://www.w3.org/2000/svg">
<path d="M2.16663 17.881V16.2143C2.6944 16.2143 3.09024 16.0754 3.35413 15.7976C3.61801 15.5199 4.13885 15.381 4.91663 15.381C5.6944 15.381 6.22913 15.5199 6.52079 15.7976C6.81246 16.0754 7.20829 16.2143 7.70829 16.2143C8.20829 16.2143 8.60413 16.0754 8.89579 15.7976C9.18746 15.5199 9.72218 15.381 10.5 15.381C11.2777 15.381 11.8125 15.5199 12.1041 15.7976C12.3958 16.0754 12.7916 16.2143 13.2916 16.2143C13.7916 16.2143 14.1875 16.0754 14.4791 15.7976C14.7708 15.5199 15.3055 15.381 16.0833 15.381C16.8611 15.381 17.3819 15.5199 17.6458 15.7976C17.9097 16.0754 18.3055 16.2143 18.8333 16.2143V17.881C18.0138 17.881 17.4755 17.7421 17.2183 17.4643C16.9616 17.1865 16.5833 17.0476 16.0833 17.0476C15.5833 17.0476 15.1875 17.1865 14.8958 17.4643C14.6041 17.7421 14.0694 17.881 13.2916 17.881C12.5138 17.881 11.9791 17.7421 11.6875 17.4643C11.3958 17.1865 11 17.0476 10.5 17.0476C9.99996 17.0476 9.60413 17.1865 9.31246 17.4643C9.02079 17.7421 8.48607 17.881 7.70829 17.881C6.93051 17.881 6.39579 17.7421 6.10413 17.4643C5.81246 17.1865 5.41663 17.0476 4.91663 17.0476C4.41663 17.0476 4.03829 17.1865 3.78163 17.4643C3.5244 17.7421 2.98607 17.881 2.16663 17.881ZM2.16663 14.131V12.4643C2.6944 12.4643 3.09024 12.3254 3.35413 12.0476C3.61801 11.7699 4.13885 11.631 4.91663 11.631C5.6944 11.631 6.23274 11.7699 6.53163 12.0476C6.82996 12.3254 7.22218 12.4643 7.70829 12.4643C8.20829 12.4643 8.60413 12.3254 8.89579 12.0476C9.18746 11.7699 9.72218 11.631 10.5 11.631C11.2777 11.631 11.8125 11.7699 12.1041 12.0476C12.3958 12.3254 12.7916 12.4643 13.2916 12.4643C13.7916 12.4643 14.1875 12.3254 14.4791 12.0476C14.7708 11.7699 15.3055 11.631 16.0833 11.631C16.8611 11.631 17.3819 11.7699 17.6458 12.0476C17.9097 12.3254 18.3055 12.4643 18.8333 12.4643V14.131C18.0138 14.131 17.4755 13.9921 17.2183 13.7143C16.9616 13.4365 16.5833 13.2976 16.0833 13.2976C15.5833 13.2976 15.1977 13.4365 14.9266 13.7143C14.6561 13.9921 14.1111 14.131 13.2916 14.131C12.5 14.131 11.9619 13.9921 11.6775 13.7143C11.3925 13.4365 11 13.2976 10.5 13.2976C9.97218 13.2976 9.57996 13.4365 9.32329 13.7143C9.06607 13.9921 8.52774 14.131 7.70829 14.131C6.88885 14.131 6.34385 13.9921 6.07329 13.7143C5.80218 13.4365 5.41663 13.2976 4.91663 13.2976C4.41663 13.2976 4.03829 13.4365 3.78163 13.7143C3.5244 13.9921 2.98607 14.131 2.16663 14.131ZM6.24996 9.88098L9.02079 7.11015L8.18746 6.27681C7.72913 5.81848 7.24301 5.48515 6.72913 5.27681C6.21524 5.06848 5.58329 4.96431 4.83329 4.96431V2.88098C5.87496 2.88098 6.73607 2.99543 7.41663 3.22431C8.09718 3.45376 8.76385 3.89487 9.41663 4.54765L14.75 9.88098C14.5138 10.0338 14.2847 10.1551 14.0625 10.2451C13.8402 10.3357 13.5833 10.381 13.2916 10.381C12.7916 10.381 12.3958 10.2421 12.1041 9.96431C11.8125 9.68654 11.2777 9.54765 10.5 9.54765C9.72218 9.54765 9.18746 9.68654 8.89579 9.96431C8.60413 10.2421 8.20829 10.381 7.70829 10.381C7.41663 10.381 7.15968 10.3357 6.93746 10.2451C6.71524 10.1551 6.48607 10.0338 6.24996 9.88098ZM14.4166 2.88098C15 2.88098 15.493 3.0857 15.8958 3.49515C16.2986 3.90515 16.5 4.39487 16.5 4.96431C16.5 5.54765 16.2986 6.0407 15.8958 6.44348C15.493 6.84626 15 7.04765 14.4166 7.04765C13.8333 7.04765 13.3402 6.84626 12.9375 6.44348C12.5347 6.0407 12.3333 5.54765 12.3333 4.96431C12.3333 4.39487 12.5347 3.90515 12.9375 3.49515C13.3402 3.0857 13.8333 2.88098 14.4166 2.88098Z" fill="#4C505B"/>
</svg>
