<svg width="16" height="16" viewBox="0 0 16 16" fill="none" xmlns="http://www.w3.org/2000/svg">
<path fill-rule="evenodd" clip-rule="evenodd" d="M15.5 13.9409V15.1856H8V15.1905H0.5V13.9458C0.5 13.3796 0.670898 12.8768 1.0127 12.4375C1.34473 11.9982 1.76953 11.7004 2.28711 11.5442C2.4043 11.4954 2.54102 11.4466 2.69727 11.3978C2.84375 11.349 3.01953 11.2953 3.22461 11.2367C3.27344 11.2269 3.33203 11.2123 3.40039 11.1928C3.46875 11.1732 3.56152 11.144 3.67871 11.1049C3.7666 11.0854 3.84961 11.0659 3.92773 11.0463C3.99609 11.017 4.06445 10.9926 4.13281 10.9731C4.78711 10.7779 5.28027 10.5533 5.6123 10.2995C5.94434 10.0457 6.14941 9.71864 6.22754 9.31838C5.93457 9.01574 5.66602 8.65453 5.42188 8.23475C5.17773 7.81496 4.97266 7.36589 4.80664 6.88753C4.63086 6.40917 4.49414 5.92105 4.39648 5.42316C4.29883 4.91552 4.25 4.42251 4.25 3.94415C4.25 3.26078 4.34766 2.67992 4.54297 2.20156C4.73828 1.7232 5.00684 1.33758 5.34863 1.04471C5.69043 0.74207 6.08594 0.527297 6.53516 0.400385C6.99414 0.263711 7.48242 0.195374 8 0.195374V0.190491C8.51758 0.190491 9.00586 0.258828 9.46484 0.395502C9.91406 0.522414 10.3096 0.737188 10.6514 1.03982C10.9932 1.3327 11.2617 1.71831 11.457 2.19667C11.6523 2.67503 11.75 3.2559 11.75 3.93927C11.75 4.41763 11.7012 4.91063 11.6035 5.41828C11.5059 5.91617 11.3691 6.40429 11.1934 6.88265C11.0273 7.36101 10.8223 7.81008 10.5781 8.22987C10.334 8.64965 10.0654 9.01086 9.77246 9.3135C9.85059 9.71376 10.0557 10.0408 10.3877 10.2946C10.7197 10.5484 11.2129 10.773 11.8672 10.9682C11.9355 10.9878 12.0039 11.0122 12.0723 11.0414C12.1504 11.061 12.2334 11.0805 12.3213 11.1C12.4385 11.1391 12.5312 11.1684 12.5996 11.1879C12.668 11.2074 12.7266 11.2221 12.7754 11.2318C12.9805 11.2904 13.1563 11.3441 13.3027 11.3929C13.459 11.4417 13.5957 11.4905 13.7129 11.5393C14.2305 11.6955 14.6553 11.9933 14.9873 12.4326C15.3291 12.8719 15.5 13.3747 15.5 13.9409ZM8 1.44985V1.45473C7.16016 1.45473 6.53516 1.64998 6.125 2.04048C5.70508 2.42121 5.49512 3.05577 5.49512 3.94415C5.49512 4.35418 5.53906 4.77396 5.62695 5.20351C5.70508 5.63306 5.81738 6.04796 5.96387 6.44822C6.11035 6.84848 6.28125 7.21945 6.47656 7.56114C6.67187 7.91259 6.88672 8.20546 7.12109 8.43976L7.56055 8.89371L7.45801 9.52339C7.34082 10.2068 7.03809 10.7535 6.5498 11.1635C6.06152 11.5637 5.37793 11.9005 4.49902 12.1739C4.4209 12.1934 4.34766 12.2178 4.2793 12.2471C4.20117 12.2666 4.11328 12.2862 4.01563 12.3057C3.86914 12.3545 3.77148 12.3887 3.72266 12.4082C3.66406 12.418 3.61035 12.4277 3.56152 12.4375C3.37598 12.4961 3.21973 12.5449 3.09277 12.5839C2.96582 12.623 2.8584 12.662 2.77051 12.7011L2.63867 12.745C2.375 12.8231 2.16016 12.9744 1.99414 13.199C1.82812 13.4235 1.74512 13.6724 1.74512 13.9458H8V13.9409H14.2549C14.2549 13.6675 14.1719 13.4186 14.0059 13.1941C13.8398 12.9695 13.625 12.8182 13.3613 12.7401L13.2295 12.6962C13.1416 12.6571 13.0342 12.6181 12.9072 12.579C12.7803 12.54 12.624 12.4912 12.4385 12.4326C12.3896 12.4228 12.3359 12.4131 12.2773 12.4033C12.2285 12.3838 12.1309 12.3496 11.9844 12.3008C11.8867 12.2813 11.7988 12.2618 11.7207 12.2422C11.6523 12.2129 11.5791 12.1885 11.501 12.169C10.6221 11.8957 9.93848 11.5589 9.4502 11.1586C8.96191 10.7486 8.65918 10.2019 8.54199 9.51851L8.43945 8.88883L8.87891 8.43488C9.11328 8.20058 9.32813 7.9077 9.52344 7.55626C9.71875 7.21457 9.88965 6.8436 10.0361 6.44334C10.1826 6.04308 10.2949 5.62817 10.373 5.19863C10.4609 4.76908 10.5049 4.34929 10.5049 3.93927C10.5049 3.05089 10.2949 2.41633 9.875 2.03559C9.46484 1.6451 8.83984 1.44985 8 1.44985Z" fill="white"/>
</svg>
