<svg width="21" height="21" viewBox="0 0 21 21" fill="none" xmlns="http://www.w3.org/2000/svg">
<g clip-path="url(#clip0_409_3723)">
<path d="M5.79167 13.1726L4.04167 11.381C4.86111 10.5615 5.82306 9.91235 6.9275 9.43346C8.03139 8.95402 9.22222 8.71429 10.5 8.71429C11.7778 8.71429 12.9689 8.95735 14.0733 9.44346C15.1772 9.92957 16.1389 10.5893 16.9583 11.4226L15.2083 13.1726C14.5972 12.5615 13.8889 12.0824 13.0833 11.7351C12.2778 11.3879 11.4167 11.2143 10.5 11.2143C9.58333 11.2143 8.72222 11.3879 7.91667 11.7351C7.11111 12.0824 6.40278 12.5615 5.79167 13.1726ZM2.25 9.63096L0.5 7.88096C1.77778 6.57541 3.27083 5.55457 4.97917 4.81846C6.6875 4.08235 8.52778 3.71429 10.5 3.71429C12.4722 3.71429 14.3125 4.08235 16.0208 4.81846C17.7292 5.55457 19.2222 6.57541 20.5 7.88096L18.75 9.63096C17.6806 8.56152 16.4411 7.72457 15.0317 7.12013C13.6217 6.51624 12.1111 6.21429 10.5 6.21429C8.88889 6.21429 7.37833 6.51624 5.96833 7.12013C4.55889 7.72457 3.31944 8.56152 2.25 9.63096ZM10.5 17.881L13.4375 14.9226C13.0625 14.5476 12.625 14.2523 12.125 14.0368C11.625 13.8218 11.0833 13.7143 10.5 13.7143C9.91667 13.7143 9.375 13.8218 8.875 14.0368C8.375 14.2523 7.9375 14.5476 7.5625 14.9226L10.5 17.881Z" fill="#4C505B"/>
</g>
<defs>
<clipPath id="clip0_409_3723">
<rect width="20" height="20" fill="white" transform="translate(0.5 0.380981)"/>
</clipPath>
</defs>
</svg>
